<svg width="20" height="16" viewBox="0 0 20 16" fill="none" xmlns="http://www.w3.org/2000/svg">
<path d="M15.8319 7.17751C16.7736 7.17751 17.5369 6.35602 17.5369 5.34266C17.5369 4.3293 16.7736 3.50781 15.8319 3.50781C14.8903 3.50781 14.127 4.3293 14.127 5.34266C14.127 6.35602 14.8903 7.17751 15.8319 7.17751Z" fill="#003FA9"/>
<path d="M15.8318 2.85279C16.1054 2.85279 16.3159 2.62627 16.3159 2.33178V1.38038C16.3159 1.0859 16.1054 0.859375 15.8318 0.859375C15.5581 0.859375 15.3477 1.0859 15.3477 1.38038V2.33178C15.3477 2.62627 15.5581 2.85279 15.8318 2.85279Z" fill="#003FA9"/>
<path d="M13.5167 3.60032C13.6009 3.69093 13.7272 3.75889 13.8535 3.75889C13.9798 3.75889 14.1061 3.71359 14.1903 3.60032C14.2744 3.50971 14.3376 3.3738 14.3376 3.23789C14.3376 3.10197 14.2955 2.96606 14.1903 2.87545L13.5588 2.19587C13.3693 1.992 13.0536 1.992 12.8641 2.19587C12.7799 2.28648 12.7168 2.4224 12.7168 2.55831C12.7168 2.69423 12.7589 2.83014 12.8641 2.92075L13.5167 3.60032Z" fill="#003FA9"/>
<path d="M12.1482 5.86428H13.0323C13.3059 5.86428 13.5164 5.63775 13.5164 5.34327C13.5164 5.04879 13.3059 4.82227 13.0323 4.82227H12.1482C11.8746 4.82227 11.6641 5.04879 11.6641 5.34327C11.6641 5.63775 11.8956 5.86428 12.1482 5.86428Z" fill="#003FA9"/>
<path d="M13.5171 7.10994L12.8856 7.78951C12.8014 7.88012 12.7383 8.01603 12.7383 8.15195C12.7383 8.28786 12.7804 8.42378 12.8856 8.51439C12.9698 8.605 13.0961 8.67295 13.2224 8.67295C13.3487 8.67295 13.475 8.62765 13.5592 8.51439L14.1907 7.83481C14.2749 7.7442 14.338 7.60829 14.338 7.47237C14.338 7.33646 14.2959 7.20054 14.1907 7.10994C14.0223 6.90606 13.7066 6.90606 13.5171 7.10994Z" fill="#003FA9"/>
<path d="M15.3477 8.35694V9.30835C15.3477 9.60283 15.5581 9.82935 15.8318 9.82935C16.1054 9.82935 16.3159 9.60283 16.3159 9.30835V8.35694C16.3159 8.06246 16.1054 7.83594 15.8318 7.83594C15.5581 7.83594 15.3477 8.06246 15.3477 8.35694Z" fill="#003FA9"/>
<path d="M18.1476 7.10994C17.9582 6.90606 17.6425 6.90606 17.453 7.10994C17.3688 7.20054 17.3057 7.33646 17.3057 7.47237C17.3057 7.60829 17.3478 7.7442 17.453 7.83481L18.0845 8.51439C18.1687 8.605 18.295 8.67295 18.4213 8.67295C18.5476 8.67295 18.6739 8.62765 18.7581 8.51439C18.8423 8.42378 18.9054 8.28786 18.9054 8.15195C18.9054 8.01603 18.8633 7.88012 18.7581 7.78951L18.1476 7.10994Z" fill="#003FA9"/>
<path d="M19.5157 4.82227H18.6316C18.358 4.82227 18.1475 5.04879 18.1475 5.34327C18.1475 5.63775 18.358 5.86428 18.6316 5.86428H19.5157C19.7893 5.86428 19.9998 5.63775 19.9998 5.34327C19.9998 5.04879 19.7893 4.82227 19.5157 4.82227Z" fill="#003FA9"/>
<path d="M17.8108 3.73545C17.9371 3.73545 18.0634 3.69015 18.1476 3.57689L18.7791 2.89731C18.8633 2.8067 18.9265 2.67079 18.9265 2.53487C18.9265 2.39896 18.8844 2.26304 18.7791 2.17244C18.5897 1.96856 18.2739 1.96856 18.0845 2.17244L17.453 2.85201C17.3688 2.94262 17.3057 3.07853 17.3057 3.21445C17.3057 3.35036 17.3478 3.48628 17.453 3.57689C17.5583 3.6675 17.6846 3.73545 17.8108 3.73545Z" fill="#003FA9"/>
<path d="M9.3279 12.4114C9.22266 12.4114 9.11741 12.3435 9.07531 12.2302C8.73852 11.3921 7.34926 7.81298 5.93896 5.59304C6.99143 5.09469 8.29649 5.32121 9.58049 6.47649C9.74889 6.6124 9.98043 6.45384 9.91728 6.22731C9.4963 4.64164 8.38068 3.48637 7.18087 3.25984C7.8755 2.98801 8.82272 2.87475 9.98043 2.87475C10.1909 2.87475 10.2751 2.60292 10.1067 2.44435C8.73852 1.31173 6.90723 1.10786 5.64427 1.74213C5.77056 1.26643 5.98106 0.813377 6.2547 0.360328C6.381 0.156456 6.19155 -0.0700677 6.00211 0.020542C4.97069 0.473591 4.12872 1.33438 3.77088 2.35374C2.67631 2.10457 1.37125 2.35374 0.297735 3.14658C0.108291 3.28249 0.213538 3.59963 0.445081 3.57698C1.01341 3.50902 1.60279 3.55432 2.12903 3.66759C0.866068 4.36981 -0.0601034 6.11405 0.0030446 8.01685C0.0030446 8.24338 0.276686 8.33399 0.402982 8.15277C0.992364 7.22402 1.70804 6.38588 2.46582 5.91018C1.83434 7.0881 1.96063 8.71908 2.71841 10.0103C2.82366 10.2141 3.11835 10.1235 3.11835 9.89701C3.16045 8.06216 3.79193 6.79362 4.78125 6.34057C6.00211 8.56051 6.2968 10.8484 6.31785 12.5247C6.31785 12.6606 6.2126 12.7965 6.0863 12.8192C3.24464 13.4987 2.08693 14.2916 2.08693 15.175C2.08693 16.3076 17.8739 16.285 17.8739 15.0391C17.895 13.7706 15.9163 12.4341 9.3279 12.4114Z" fill="#003FA9"/>
</svg>
