<svg width="20" height="10" viewBox="0 0 20 10" fill="none" xmlns="http://www.w3.org/2000/svg">
<path fill-rule="evenodd" clip-rule="evenodd" d="M1.46179 0H18.5382C19.3355 0 20 0.662252 20 1.45695V1.98675H17.4751C16.9435 1.98675 16.7442 2.31788 16.8771 2.71523C17.2093 3.84106 17.7409 5.29801 19.0698 5.29801H20V7.08609C20 7.88079 19.3355 8.47682 18.5382 8.47682H18.3389C18.2724 7.41722 17.3422 6.62252 16.2791 6.62252C15.2159 6.62252 14.2857 7.41722 14.2193 8.47682H6.04651C5.98007 7.41722 5.04983 6.62252 3.98671 6.62252C2.92359 6.62252 1.99336 7.41722 1.92691 8.47682H1.46179C0.664452 8.47682 0 7.88079 0 7.08609V1.45695C0 0.662252 0.664452 0 1.46179 0ZM16.2791 7.48344C17.01 7.48344 17.5415 8.01324 17.5415 8.74172C17.5415 9.40397 17.01 10 16.2791 10C15.5482 10 15.0166 9.40397 15.0166 8.74172C15.0166 8.01324 15.5482 7.48344 16.2791 7.48344ZM3.98671 7.48344C4.71761 7.48344 5.24917 8.01324 5.24917 8.74172C5.24917 9.40397 4.71761 10 3.98671 10C3.25581 10 2.72425 9.40397 2.72425 8.74172C2.72425 8.01324 3.25581 7.48344 3.98671 7.48344ZM13.4219 2.05298H15.2824C15.5482 2.05298 15.7475 2.25166 15.7475 2.51656V4.30464C15.7475 4.56954 15.5482 4.76821 15.2824 4.76821H13.4219C13.2226 4.76821 13.0233 4.56954 13.0233 4.30464V2.51656C13.0233 2.25166 13.2226 2.05298 13.4219 2.05298ZM9.701 2.05298H11.495C11.7608 2.05298 11.9601 2.25166 11.9601 2.51656V4.30464C11.9601 4.56954 11.7608 4.76821 11.495 4.76821H9.701C9.43521 4.76821 9.23588 4.56954 9.23588 4.30464V2.51656C9.23588 2.25166 9.43521 2.05298 9.701 2.05298ZM5.91362 2.05298H7.77409C7.97342 2.05298 8.17276 2.25166 8.17276 2.51656V4.30464C8.17276 4.56954 7.97342 4.76821 7.77409 4.76821H5.91362C5.64784 4.76821 5.51495 4.56954 5.51495 4.30464V2.51656C5.51495 2.25166 5.64784 2.05298 5.91362 2.05298ZM2.19269 2.05298H3.98671C4.25249 2.05298 4.45183 2.25166 4.45183 2.51656V4.30464C4.45183 4.56954 4.25249 4.76821 3.98671 4.76821H2.19269C1.92691 4.76821 1.72757 4.56954 1.72757 4.30464V2.51656C1.72757 2.25166 1.92691 2.05298 2.19269 2.05298Z" fill="#003FA9"/>
</svg>
