<svg width="20" height="30" viewBox="0 0 20 30" fill="none" xmlns="http://www.w3.org/2000/svg">
<path d="M10.9942 30H1.79211C0.803763 30 0 29.1814 0 28.1748V1.82518C0 0.818592 0.803763 0 1.79211 0H18.2079C19.1962 0 20 0.818592 20 1.82518V22.875C20 23.7734 19.4395 24.889 18.7236 25.4147L13.6909 29.1125C13.0139 29.6103 11.8293 30 10.9942 30ZM1.79211 0.912589C1.29794 0.912589 0.896057 1.32189 0.896057 1.82518V28.1748C0.896057 28.6781 1.29794 29.0874 1.79211 29.0874H10.9942C11.6443 29.0874 12.6393 28.7603 13.1667 28.3729L18.1994 24.675C18.681 24.321 19.1039 23.48 19.1039 22.8754V1.82518C19.1039 1.32189 18.7021 0.912589 18.2079 0.912589H1.79211Z" fill="black"/>
<path d="M12.605 29.5506H11.709V25.1601C11.709 24.1536 12.5127 23.335 13.5011 23.335H19.5526V24.2476H13.5011C13.0069 24.2476 12.605 24.6568 12.605 25.1601V29.5506Z" fill="black"/>
<path d="M12.6778 17.0445H7.73782C6.41345 17.0445 5.33594 15.9472 5.33594 14.5979C5.33594 14.346 5.53621 14.1416 5.78397 14.1416C6.03173 14.1416 6.23199 14.346 6.23199 14.5979C6.23199 15.4439 6.90762 16.132 7.73782 16.132H12.6773C13.508 16.132 14.1832 15.4439 14.1832 14.5979C14.1832 14.346 14.3834 14.1416 14.6312 14.1416C14.8789 14.1416 15.0792 14.346 15.0792 14.5979C15.0797 15.9472 14.0022 17.0445 12.6778 17.0445Z" fill="black"/>
<path d="M10.6285 7.31836H9.73242V14.2654H10.6285V7.31836Z" fill="black"/>
<path d="M10.1801 14.8504C10.0685 14.8504 9.95741 14.8084 9.87095 14.7244L8.16396 13.0658C7.98519 12.8919 7.97847 12.6031 8.14917 12.4206C8.31987 12.2385 8.60392 12.2312 8.78268 12.4055L10.1828 13.7662L11.6111 12.4028C11.7912 12.2312 12.0748 12.2399 12.2442 12.4233C12.4135 12.6068 12.4041 12.8961 12.2235 13.0685L10.4865 14.7272C10.4005 14.8093 10.2907 14.8504 10.1801 14.8504Z" fill="black"/>
</svg>
