<svg width="20" height="21" viewBox="0 0 20 21" fill="none" xmlns="http://www.w3.org/2000/svg">
<path fill-rule="evenodd" clip-rule="evenodd" d="M18.3688 13.1094C18.1719 13.1094 18.0031 13.2782 18.0031 13.4751V14.2064C18.0031 14.3189 17.9187 14.4033 17.8343 14.4033H17.1874C17.0748 14.4033 16.9905 14.3189 16.9905 14.2064V13.4751C16.9905 13.2782 16.8217 13.1094 16.6248 13.1094H15.3871C15.162 13.1094 14.9933 13.2782 14.9933 13.4751V14.4033H14.4307L14.937 20.0011H20.0003C20.0003 17.1319 20.0003 16.2036 20.0003 13.4751C20.0003 13.2782 19.8315 13.1094 19.6346 13.1094H18.3688Z" fill="#003FA9"/>
<path fill-rule="evenodd" clip-rule="evenodd" d="M4.61324 13.1094H3.37554C3.15051 13.1094 2.98173 13.2782 2.98173 13.4751V14.2064C2.98173 14.3189 2.92547 14.4033 2.81295 14.4033H2.16597C2.05346 14.4033 1.9972 14.3189 1.9972 14.2064V13.4751C1.9972 13.2782 1.82842 13.1094 1.60338 13.1094H0.365684C0.140648 13.1094 0 13.2782 0 13.4751C0 16.2036 0 17.1319 0 20.0011H5.23209L5.76655 14.4033H4.97893V13.4751C4.97893 13.4751 4.9508 13.1094 4.61324 13.1094Z" fill="#003FA9"/>
<path fill-rule="evenodd" clip-rule="evenodd" d="M12.7423 4.41602H11.4764V5.42868H10.7169V4.41602H9.45111V5.42868H8.69161V4.41602H7.42578V6.7789L8.10089 7.65091L7.87585 9.56372C9.33859 9.56372 10.8295 9.56372 12.2922 9.56372L12.0672 7.65091L12.7423 6.7789V4.41602Z" fill="#003FA9"/>
<path fill-rule="evenodd" clip-rule="evenodd" d="M14.2617 11.8698V10.4633C14.2617 10.3508 14.1773 10.2383 14.0367 10.2383H13.3616C13.249 10.2383 13.1365 10.3508 13.1365 10.4633V11.1384H12.4614V10.4633C12.4614 10.3508 12.3489 10.2383 12.2364 10.2383H11.5613C11.4487 10.2383 11.3362 10.3508 11.3362 10.4633V11.1384H10.6611V10.4633C10.6611 10.3508 10.5486 10.2383 10.408 10.2383H9.73284C9.67658 10.2383 9.62033 10.2664 9.5922 10.2945C9.53594 10.3508 9.50781 10.4071 9.50781 10.4633V11.1384H8.8327V10.4633C8.8327 10.3508 8.74831 10.2383 8.60766 10.2383H7.93255C7.82004 10.2383 7.70752 10.3508 7.70752 10.4633V11.1384H7.03241V10.4633C7.03241 10.3508 6.91989 10.2383 6.80737 10.2383H6.13226C6.01974 10.2383 5.90723 10.3508 5.90723 10.4633V11.8698L6.58234 12.7418L5.90723 19.9992H14.2617L13.5866 12.7418L14.2617 11.8698Z" fill="#003FA9"/>
<path fill-rule="evenodd" clip-rule="evenodd" d="M10.0981 0L6.63818 3.74123H13.5299L10.0981 0Z" fill="#003FA9"/>
</svg>
