<svg width="36" height="37" viewBox="0 0 36 37" fill="none" xmlns="http://www.w3.org/2000/svg">
<path d="M12.7109 8.0962C12.7107 7.9806 12.6395 7.86978 12.5131 7.78804C12.3866 7.7063 12.2151 7.66031 12.0363 7.66016H3.3856C3.20674 7.66031 3.03528 7.7063 2.9088 7.78804C2.78233 7.86978 2.71118 7.9806 2.71094 8.0962V8.66016H12.7109V8.0962Z" fill="#003FA9"/>
<path d="M14.5946 9.85938H1.72967C1.53623 9.8596 1.35079 9.92566 1.214 10.0431C1.07722 10.1605 1.00026 10.3197 1 10.4858V13.4926H8.23187C8.49149 13.4966 8.73888 13.588 8.92081 13.747C9.10275 13.9061 9.20468 14.1201 9.20468 14.343C9.20468 14.5659 9.10275 14.7799 8.92081 14.939C8.73888 15.098 8.49149 15.1894 8.23187 15.1934H1V17.8901H8.23187C8.49149 17.8941 8.73888 17.9855 8.92081 18.1445C9.10275 18.3035 9.20468 18.5176 9.20468 18.7405C9.20468 18.9634 9.10275 19.1774 8.92081 19.3364C8.73888 19.4955 8.49149 19.5868 8.23187 19.5909H1V22.2875H8.23187C8.49455 22.2875 8.74646 22.3771 8.9322 22.5366C9.11794 22.696 9.22228 22.9123 9.22228 23.1378C9.22228 23.3633 9.11794 23.5796 8.9322 23.739C8.74646 23.8985 8.49455 23.988 8.23187 23.988H1V26.685H8.23187C8.36194 26.685 8.49073 26.707 8.61089 26.7497C8.73105 26.7924 8.84023 26.8551 8.9322 26.934C9.02417 27.013 9.09712 27.1067 9.14689 27.2099C9.19667 27.313 9.22228 27.4236 9.22228 27.5352C9.22228 27.6469 9.19667 27.7575 9.14689 27.8606C9.09712 27.9638 9.02417 28.0575 8.9322 28.1365C8.84023 28.2154 8.73105 28.278 8.61089 28.3208C8.49073 28.3635 8.36194 28.3855 8.23187 28.3855H1V31.0824H8.23187C8.49455 31.0824 8.74646 31.172 8.9322 31.3315C9.11794 31.4909 9.22228 31.7072 9.22228 31.9327C9.22228 32.1582 9.11794 32.3745 8.9322 32.5339C8.74646 32.6934 8.49455 32.783 8.23187 32.783H1V35.5114C1 35.6037 1.04271 35.6922 1.11873 35.7574C1.19475 35.8227 1.29786 35.8594 1.40537 35.8594H14.5946C14.7021 35.8594 14.8052 35.8227 14.8813 35.7574C14.9573 35.6922 15 35.6037 15 35.5114V10.2074C15 10.1151 14.9573 10.0266 14.8813 9.9613C14.8052 9.89604 14.7021 9.85938 14.5946 9.85938Z" fill="white"/>
<path d="M33.2304 4.94143L16.6522 0.712555L16.644 0.710545C16.5395 0.68619 16.4302 0.683919 16.3246 0.703906C16.219 0.723893 16.1198 0.765609 16.0346 0.825872C15.9493 0.886134 15.8803 0.963351 15.8328 1.05163C15.7853 1.13991 15.7605 1.23692 15.7604 1.33526L15.7446 36.312C15.7446 36.4072 15.7861 36.4986 15.8599 36.5659C15.9337 36.6332 16.0338 36.6711 16.1382 36.6712H24.7909C24.8662 36.6968 24.949 36.6968 25.0243 36.6712H33.335C33.3867 36.6712 33.4379 36.662 33.4856 36.644C33.5334 36.6259 33.5768 36.5995 33.6134 36.5662C33.6499 36.5328 33.6789 36.4933 33.6987 36.4497C33.7185 36.4062 33.7286 36.3595 33.7286 36.3123L33.7446 5.55925C33.7442 5.41932 33.6938 5.28332 33.601 5.17185C33.5082 5.06037 33.3781 4.97949 33.2304 4.94143ZM23.6195 9.1772C23.6195 9.0721 23.6422 8.96803 23.6863 8.87093C23.7305 8.77384 23.7951 8.68562 23.8767 8.61132C23.9582 8.53702 24.055 8.47808 24.1615 8.43789C24.268 8.3977 24.3822 8.37703 24.4974 8.37707H25.3181C25.5508 8.37707 25.774 8.46137 25.9386 8.61142C26.1032 8.76147 26.1957 8.96499 26.1957 9.1772V9.92536C26.1957 10.0305 26.173 10.1345 26.1289 10.2316C26.0849 10.3288 26.0202 10.417 25.9387 10.4913C25.8572 10.5656 25.7605 10.6246 25.654 10.6648C25.5475 10.7051 25.4333 10.7258 25.3181 10.7258H24.4974C24.2646 10.7258 24.0413 10.6414 23.8767 10.4913C23.712 10.3412 23.6195 10.1376 23.6195 9.92536V9.1772ZM23.6195 13.9613C23.6195 13.8562 23.6422 13.7521 23.6863 13.655C23.7305 13.558 23.7951 13.4697 23.8767 13.3954C23.9582 13.3211 24.055 13.2622 24.1615 13.222C24.268 13.1818 24.3822 13.1611 24.4974 13.1612H25.3181C25.5508 13.1612 25.774 13.2455 25.9386 13.3955C26.1032 13.5456 26.1957 13.7491 26.1957 13.9613V14.7095C26.1957 14.8146 26.173 14.9186 26.1289 15.0158C26.0849 15.1129 26.0202 15.2011 25.9387 15.2754C25.8572 15.3498 25.7605 15.4087 25.654 15.449C25.5475 15.4892 25.4333 15.5099 25.3181 15.5099H24.4974C24.2646 15.5099 24.0413 15.4256 23.8767 15.2754C23.712 15.1253 23.6195 14.9218 23.6195 14.7095V13.9613ZM23.6195 18.7454C23.6195 18.6403 23.6422 18.5363 23.6863 18.4392C23.7305 18.3421 23.7951 18.2538 23.8767 18.1795C23.9582 18.1052 24.055 18.0463 24.1615 18.0061C24.268 17.9659 24.3822 17.9453 24.4974 17.9453H25.3181C25.5508 17.9453 25.774 18.0296 25.9386 18.1796C26.1032 18.3297 26.1957 18.5332 26.1957 18.7454V19.4936C26.1957 19.5987 26.173 19.7028 26.1289 19.7999C26.0849 19.897 26.0202 19.9852 25.9387 20.0595C25.8572 20.1339 25.7605 20.1928 25.654 20.2331C25.5475 20.2733 25.4333 20.294 25.3181 20.294H24.4974C24.2646 20.294 24.0413 20.2097 23.8767 20.0596C23.712 19.9095 23.6195 19.7059 23.6195 19.4936V18.7454ZM23.6195 23.5295C23.6195 23.4244 23.6422 23.3204 23.6863 23.2233C23.7305 23.1262 23.7951 23.038 23.8767 22.9637C23.9582 22.8893 24.055 22.8304 24.1615 22.7902C24.268 22.75 24.3822 22.7294 24.4974 22.7294H25.3181C25.5508 22.7294 25.774 22.8137 25.9386 22.9638C26.1032 23.1138 26.1957 23.3173 26.1957 23.5295V24.278C26.1956 24.4901 26.1031 24.6936 25.9385 24.8436C25.7739 24.9936 25.5508 25.0778 25.3181 25.0778H24.4974C24.3822 25.0779 24.268 25.0572 24.1615 25.017C24.055 24.9768 23.9582 24.9179 23.8767 24.8436C23.7951 24.7693 23.7305 24.6811 23.6863 24.584C23.6422 24.4869 23.6195 24.3828 23.6195 24.2777V23.5295ZM23.6195 28.3136C23.6195 28.2085 23.6422 28.1045 23.6863 28.0074C23.7305 27.9103 23.7951 27.8221 23.8767 27.7478C23.9582 27.6735 24.055 27.6145 24.1615 27.5743C24.268 27.5341 24.3822 27.5135 24.4974 27.5135H25.3181C25.5508 27.5135 25.774 27.5978 25.9386 27.7479C26.1032 27.8979 26.1957 28.1014 26.1957 28.3136V29.0621C26.1957 29.2743 26.1032 29.4778 25.9386 29.6279C25.774 29.7779 25.5508 29.8622 25.3181 29.8622H24.4974C24.3822 29.8623 24.268 29.8416 24.1615 29.8014C24.055 29.7612 23.9582 29.7023 23.8767 29.628C23.7951 29.5537 23.7305 29.4654 23.6863 29.3684C23.6422 29.2713 23.6195 29.1672 23.6195 29.0621V28.3136ZM18.8722 9.1772C18.8722 8.96499 18.9646 8.76147 19.1292 8.61142C19.2938 8.46137 19.517 8.37707 19.7498 8.37707H20.5704C20.6856 8.37707 20.7998 8.39776 20.9062 8.43797C21.0127 8.47818 21.1095 8.53712 21.191 8.61142C21.2724 8.68572 21.3371 8.77392 21.3812 8.871C21.4253 8.96807 21.448 9.07212 21.448 9.1772V9.92536C21.448 10.0305 21.4254 10.1345 21.3813 10.2316C21.3372 10.3288 21.2726 10.417 21.1911 10.4913C21.1096 10.5656 21.0128 10.6246 20.9063 10.6648C20.7998 10.7051 20.6857 10.7258 20.5704 10.7258H19.7498C19.6345 10.7258 19.5204 10.7051 19.4139 10.6648C19.3074 10.6246 19.2106 10.5656 19.1291 10.4913C19.0476 10.417 18.983 10.3288 18.9389 10.2316C18.8948 10.1345 18.8721 10.0305 18.8722 9.92536V9.1772ZM18.8722 13.9613C18.8722 13.7491 18.9646 13.5456 19.1292 13.3955C19.2938 13.2455 19.517 13.1612 19.7498 13.1612H20.5704C20.6856 13.1612 20.7998 13.1819 20.9062 13.2221C21.0127 13.2623 21.1095 13.3212 21.191 13.3955C21.2724 13.4698 21.3371 13.558 21.3812 13.6551C21.4253 13.7522 21.448 13.8562 21.448 13.9613V14.7095C21.448 14.8146 21.4254 14.9186 21.3813 15.0158C21.3372 15.1129 21.2726 15.2011 21.1911 15.2754C21.1096 15.3498 21.0128 15.4087 20.9063 15.449C20.7998 15.4892 20.6857 15.5099 20.5704 15.5099H19.7498C19.6345 15.5099 19.5204 15.4892 19.4139 15.449C19.3074 15.4087 19.2106 15.3498 19.1291 15.2754C19.0476 15.2011 18.983 15.1129 18.9389 15.0158C18.8948 14.9186 18.8721 14.8146 18.8722 14.7095V13.9613ZM18.8722 18.7454C18.8722 18.5332 18.9646 18.3297 19.1292 18.1796C19.2938 18.0296 19.517 17.9453 19.7498 17.9453H20.5704C20.6856 17.9453 20.7998 17.966 20.9062 18.0062C21.0127 18.0464 21.1095 18.1053 21.191 18.1796C21.2724 18.2539 21.3371 18.3421 21.3812 18.4392C21.4253 18.5363 21.448 18.6403 21.448 18.7454V19.4936C21.448 19.5987 21.4254 19.7028 21.3813 19.7999C21.3372 19.897 21.2726 19.9852 21.1911 20.0595C21.1096 20.1339 21.0128 20.1928 20.9063 20.2331C20.7998 20.2733 20.6857 20.294 20.5704 20.294H19.7498C19.6345 20.294 19.5204 20.2733 19.4139 20.2331C19.3074 20.1928 19.2106 20.1339 19.1291 20.0595C19.0476 19.9852 18.983 19.897 18.9389 19.7999C18.8948 19.7028 18.8721 19.5987 18.8722 19.4936V18.7454ZM18.8722 23.5295C18.8722 23.3173 18.9646 23.1138 19.1292 22.9638C19.2938 22.8137 19.517 22.7294 19.7498 22.7294H20.5704C20.6856 22.7294 20.7998 22.7501 20.9062 22.7903C21.0127 22.8305 21.1095 22.8895 21.191 22.9638C21.2724 23.0381 21.3371 23.1263 21.3812 23.2233C21.4253 23.3204 21.448 23.4245 21.448 23.5295V24.278C21.4479 24.4901 21.3554 24.6936 21.1908 24.8436C21.0263 24.9936 20.8031 25.0778 20.5704 25.0778H19.7498C19.6345 25.0778 19.5204 25.0571 19.4139 25.0169C19.3074 24.9767 19.2107 24.9178 19.1292 24.8435C19.0477 24.7692 18.9831 24.681 18.939 24.5839C18.8949 24.4868 18.8722 24.3828 18.8722 24.2777V23.5295ZM18.8722 28.3136C18.8722 28.1014 18.9646 27.8979 19.1292 27.7479C19.2938 27.5978 19.517 27.5135 19.7498 27.5135H20.5704C20.6856 27.5135 20.7998 27.5342 20.9062 27.5744C21.0127 27.6146 21.1095 27.6736 21.191 27.7479C21.2724 27.8222 21.3371 27.9104 21.3812 28.0074C21.4253 28.1045 21.448 28.2086 21.448 28.3136V29.0621C21.448 29.1672 21.4253 29.2712 21.3812 29.3683C21.3371 29.4654 21.2724 29.5536 21.191 29.6279C21.1095 29.7022 21.0127 29.7611 20.9062 29.8013C20.7998 29.8415 20.6856 29.8622 20.5704 29.8622H19.7498C19.517 29.8622 19.2938 29.7779 19.1292 29.6279C18.9646 29.4778 18.8722 29.2743 18.8722 29.0621V28.3136ZM18.8722 31.8693C18.8722 31.7931 18.9053 31.7201 18.9644 31.6663C19.0234 31.6124 19.1035 31.5822 19.1871 31.5822H24.5141V36.298H18.8722V31.8693ZM30.9433 36.298H25.3014V31.5822H30.6284C30.7119 31.5822 30.792 31.6124 30.8511 31.6663C30.9102 31.7201 30.9433 31.7931 30.9433 31.8693V36.298ZM30.9433 29.0632C30.9433 29.1683 30.9206 29.2724 30.8765 29.3695C30.8324 29.4666 30.7677 29.5548 30.6862 29.6291C30.6046 29.7034 30.5079 29.7624 30.4013 29.8025C30.2948 29.8427 30.1807 29.8634 30.0654 29.8634H29.2454C29.0127 29.8634 28.7894 29.7791 28.6249 29.629C28.4603 29.479 28.3678 29.2754 28.3678 29.0632V28.3136C28.3678 28.1014 28.4603 27.8979 28.6249 27.7479C28.7894 27.5978 29.0127 27.5135 29.2454 27.5135H30.0641C30.1794 27.5135 30.2936 27.5341 30.4001 27.5743C30.5066 27.6145 30.6034 27.6735 30.6849 27.7478C30.7664 27.8221 30.8311 27.9103 30.8752 28.0074C30.9194 28.1045 30.9421 28.2085 30.9421 28.3136L30.9433 29.0632ZM30.9433 24.2791C30.9431 24.3842 30.9202 24.4882 30.8759 24.5852C30.8316 24.6822 30.7668 24.7703 30.6852 24.8445C30.6035 24.9186 30.5067 24.9774 30.4001 25.0175C30.2936 25.0575 30.1794 25.078 30.0641 25.0778H29.2454C29.1302 25.0778 29.016 25.0571 28.9096 25.0169C28.8031 24.9767 28.7063 24.9178 28.6249 24.8435C28.5434 24.7692 28.4787 24.681 28.4346 24.5839C28.3905 24.4868 28.3678 24.3828 28.3678 24.2777V23.5295C28.3678 23.3173 28.4603 23.1138 28.6249 22.9638C28.7894 22.8137 29.0127 22.7294 29.2454 22.7294H30.0641C30.1794 22.7294 30.2936 22.75 30.4001 22.7902C30.5066 22.8304 30.6034 22.8893 30.6849 22.9637C30.7664 23.038 30.8311 23.1262 30.8752 23.2233C30.9194 23.3204 30.9421 23.4244 30.9421 23.5295L30.9433 24.2791ZM30.9433 19.4947C30.9433 19.707 30.8508 19.9106 30.6862 20.0607C30.5215 20.2108 30.2982 20.2951 30.0654 20.2951H29.2454C29.1301 20.2951 29.016 20.2744 28.9095 20.2342C28.803 20.194 28.7062 20.135 28.6247 20.0607C28.5432 19.9864 28.4786 19.8981 28.4345 19.801C28.3904 19.7039 28.3678 19.5998 28.3678 19.4947V18.7454C28.3678 18.5332 28.4603 18.3297 28.6249 18.1796C28.7894 18.0296 29.0127 17.9453 29.2454 17.9453H30.0641C30.1794 17.9453 30.2936 17.9659 30.4001 18.0061C30.5066 18.0463 30.6034 18.1052 30.6849 18.1795C30.7664 18.2538 30.8311 18.3421 30.8752 18.4392C30.9194 18.5363 30.9421 18.6403 30.9421 18.7454L30.9433 19.4947ZM30.9433 14.7106C30.9433 14.9229 30.8508 15.1265 30.6862 15.2766C30.5215 15.4267 30.2982 15.511 30.0654 15.511H29.2454C29.1301 15.511 29.016 15.4903 28.9095 15.4501C28.803 15.4099 28.7062 15.3509 28.6247 15.2766C28.5432 15.2023 28.4786 15.114 28.4345 15.0169C28.3904 14.9198 28.3678 14.8157 28.3678 14.7106V13.9613C28.3678 13.7491 28.4603 13.5456 28.6249 13.3955C28.7894 13.2455 29.0127 13.1612 29.2454 13.1612H30.0641C30.1794 13.1611 30.2936 13.1818 30.4001 13.222C30.5066 13.2622 30.6034 13.3211 30.6849 13.3954C30.7664 13.4697 30.8311 13.558 30.8752 13.655C30.9194 13.7521 30.9421 13.8562 30.9421 13.9613L30.9433 14.7106ZM30.9433 9.92651C30.9433 10.1388 30.8508 10.3424 30.6862 10.4925C30.5215 10.6426 30.2982 10.7269 30.0654 10.7269H29.2454C29.1301 10.7269 29.016 10.7062 28.9095 10.666C28.803 10.6258 28.7062 10.5668 28.6247 10.4925C28.5432 10.4181 28.4786 10.3299 28.4345 10.2328C28.3904 10.1357 28.3678 10.0316 28.3678 9.92651V9.1772C28.3678 8.96499 28.4603 8.76147 28.6249 8.61142C28.7894 8.46137 29.0127 8.37707 29.2454 8.37707H30.0641C30.1794 8.37703 30.2936 8.3977 30.4001 8.43789C30.5066 8.47808 30.6034 8.53702 30.6849 8.61132C30.7664 8.68562 30.8311 8.77384 30.8752 8.87093C30.9194 8.96803 30.9421 9.0721 30.9421 9.1772L30.9433 9.92651Z" fill="#84E7FF"/>
</svg>
