<svg width="36" height="37" viewBox="0 0 36 37" fill="none" xmlns="http://www.w3.org/2000/svg">
<path d="M25.3627 30.6659C25.6384 30.9312 25.9534 31.0449 26.3079 31.0449C26.6624 31.0449 26.9774 30.9312 27.2531 30.6659L30.8765 27.1796C31.3885 26.687 31.3885 25.8533 30.8765 25.3607C30.3645 24.8681 29.498 24.8681 28.986 25.3607L26.3079 27.9375L25.3233 26.9902C24.8113 26.4975 23.9448 26.4975 23.4328 26.9902C22.9208 27.4828 22.9208 28.3165 23.4328 28.8091L25.3627 30.6659Z" fill="black"/>
<path d="M32.0984 4.21464H30.4049V3.83569C30.4049 2.09253 28.9476 0.69043 27.136 0.69043C25.3243 0.69043 23.867 2.09253 23.867 3.83569V4.21464H21.307V3.83569C21.307 2.09253 19.8498 0.69043 18.0381 0.69043C16.2264 0.69043 14.7692 2.09253 14.7692 3.83569V4.21464H12.2092V3.83569C12.2092 2.09253 10.752 0.69043 8.94029 0.69043C7.1286 0.69043 5.67137 2.09253 5.67137 3.83569V4.21464H3.97784C1.7723 4.21464 0 5.9199 0 8.04201V32.8631C0 34.9852 1.7723 36.6904 3.97784 36.6904H32.0196C34.2252 36.6904 35.9975 34.9852 35.9975 32.8631V8.0799C36.0762 5.9578 34.3039 4.21464 32.0984 4.21464ZM25.9544 3.87359C25.9544 3.22938 26.5058 2.73675 27.136 2.73675C27.8055 2.73675 28.3175 3.26727 28.3175 3.87359V6.60201C28.3175 7.24622 27.7661 7.73885 27.136 7.73885C26.4664 7.73885 25.9544 7.20832 25.9544 6.60201V3.87359ZM16.896 3.87359C16.896 3.22938 17.4474 2.73675 18.0775 2.73675C18.747 2.73675 19.259 3.26727 19.259 3.87359V6.60201C19.259 7.24622 18.7077 7.73885 18.0775 7.73885C17.408 7.73885 16.896 7.20832 16.896 6.60201V3.87359ZM7.79814 3.87359C7.79814 3.22938 8.34952 2.73675 8.97968 2.73675C9.64921 2.73675 10.1612 3.26727 10.1612 3.87359V6.60201C10.1612 7.24622 9.60983 7.73885 8.97968 7.73885C8.31014 7.73885 7.79814 7.20832 7.79814 6.60201V3.87359ZM34.0282 32.901C34.0282 33.9241 33.1618 34.7578 32.0984 34.7578H4.05661C2.99323 34.7578 2.12677 33.9241 2.12677 32.901V12.8167H33.9889V32.901H34.0282Z" fill="white"/>
<path d="M7.16755 22.5551H11.2242C11.7755 22.5551 12.2482 22.1004 12.2482 21.5699V17.6288C12.2482 17.0983 11.7755 16.6436 11.2242 16.6436H7.16755C6.61617 16.6436 6.14355 17.0983 6.14355 17.6288V21.5699C6.14355 22.1004 6.61617 22.5551 7.16755 22.5551Z" fill="#84E7FF"/>
<path d="M16.0683 22.5551H20.1249C20.6763 22.5551 21.1489 22.1004 21.1489 21.5699V17.6288C21.1489 17.0983 20.6763 16.6436 20.1249 16.6436H16.0683C15.5169 16.6436 15.0443 17.0983 15.0443 17.6288V21.5699C15.0049 22.1004 15.4775 22.5551 16.0683 22.5551Z" fill="#003FA9"/>
<path d="M24.9302 22.5551H28.9869C29.5382 22.5551 30.0109 22.1004 30.0109 21.5699V17.6288C30.0109 17.0983 29.5382 16.6436 28.9869 16.6436H24.9302C24.3789 16.6436 23.9062 17.0983 23.9062 17.6288V21.5699C23.9062 22.1004 24.3789 22.5551 24.9302 22.5551Z" fill="#84E7FF"/>
<path d="M7.16755 30.9682H11.2242C11.7755 30.9682 12.2482 30.5135 12.2482 29.983V26.0419C12.2482 25.5114 11.7755 25.0566 11.2242 25.0566H7.16755C6.61617 25.0566 6.14355 25.5114 6.14355 26.0419V29.983C6.14355 30.5135 6.61617 30.9682 7.16755 30.9682Z" fill="#003FA9"/>
<path d="M16.0683 30.9682H20.1249C20.6763 30.9682 21.1489 30.5135 21.1489 29.983V26.0419C21.1489 25.5114 20.6763 25.0566 20.1249 25.0566H16.0683C15.5169 25.0566 15.0443 25.5114 15.0443 26.0419V29.983C15.0049 30.5135 15.4775 30.9682 16.0683 30.9682Z" fill="white"/>
</svg>
