<svg width="36" height="37" viewBox="0 0 36 37" fill="none" xmlns="http://www.w3.org/2000/svg">
<path fill-rule="evenodd" clip-rule="evenodd" d="M17.4887 7.81407C17.4887 5.41717 15.4167 3.21767 12.8807 2.77454C10.3447 2.33142 7.68068 3.6769 6.84068 5.92072C6.62868 6.49679 6.15268 8.10412 6.44068 11.6411C6.52664 12.7356 6.98311 13.7673 7.73375 14.5636C8.4844 15.36 9.48374 15.8726 10.5647 16.0159C11.6278 16.2505 12.7386 16.1114 13.7123 15.6218C14.6861 15.1323 15.464 14.3217 15.9167 13.3249C17.4007 10.0982 17.4927 8.42639 17.4887 7.81407Z" fill="#84E7FF"/>
<path d="M12.088 29.3545C11.14 28.7664 9.95599 27.8519 9.68799 26.8045C9.47506 25.9488 9.60157 25.0431 10.0407 24.2798C10.4798 23.5164 11.1969 22.9554 12.04 22.7157L12.324 22.6512C12.3379 22.4996 12.3606 22.349 12.392 22.2001C12.5925 21.3037 13.0718 20.495 13.76 19.8918C14.3972 19.323 15.1491 18.8997 15.964 18.651C16.5587 18.4662 17.1776 18.3725 17.8 18.3731C18.0232 18.3745 18.2462 18.3879 18.468 18.4134C18.3707 18.2302 18.2496 18.0609 18.108 17.9098C17.308 17.08 15.384 16.5643 14.292 16.5361C13.2965 17.1552 12.136 17.4506 10.968 17.3821C9.79877 17.4504 8.63697 17.1551 7.63999 16.5361C6.53999 16.5643 4.61599 17.088 3.804 17.93C1.736 20.0892 0.0919999 30.6315 0 34.0838H10.8C10.98 31.9931 11.416 30.4583 12.136 29.3787C12.1205 29.3695 12.1045 29.3615 12.088 29.3545Z" fill="#84E7FF"/>
<path d="M36.0001 34.0837C35.9241 31.2195 35.1081 21.4909 33.6001 19.2874C32.6921 17.9661 30.6281 17.0919 29.2281 17.0557C28.2768 17.643 27.1702 17.924 26.0561 17.8613C24.942 17.924 23.8355 17.643 22.8841 17.0557C21.6841 17.0839 20.6801 17.7244 19.8481 18.7275C20.4083 18.9146 20.937 19.1862 21.4161 19.5331C22.3201 20.1658 22.9598 21.1128 23.2121 22.1919C23.2438 22.3394 23.2665 22.4887 23.2801 22.639L23.5721 22.7075C24.4127 22.9488 25.1269 23.5101 25.5637 24.2726C26.0004 25.035 26.1254 25.9387 25.9121 26.7923C25.6481 27.8397 24.4641 28.7541 23.5121 29.3423L23.4481 29.3665C24.1681 30.4582 24.6001 31.997 24.7841 34.0837H35.9841H36.0001Z" fill="white"/>
<path d="M23.6597 16.197C25.0757 16.8134 25.4357 16.8537 26.5437 16.6563C27.4862 16.5017 28.3665 16.0828 29.0837 15.4478C30.8036 15.2141 34.1276 13.8082 35.1516 12.8776C32.9516 11.8826 30.5276 7.81796 29.8997 6.38385C29.4611 5.41446 28.7188 4.61677 27.7867 4.1132C26.8546 3.60964 25.7841 3.42801 24.7397 3.5962C21.6437 4.02321 19.9117 6.13812 19.9837 8.35777C20.0597 10.7506 19.8477 15.6089 19.5557 16.5072C20.9306 16.5476 22.3061 16.4436 23.6597 16.197Z" fill="white"/>
<path d="M21.1242 29.007C20.1585 29.7103 18.9918 30.078 17.8002 30.0543C16.6096 30.0762 15.4442 29.7071 14.4802 29.0029C14.1184 29.1233 13.7868 29.3212 13.5082 29.583C13.4297 29.6657 13.3562 29.7532 13.2882 29.8449C12.5842 30.7795 12.2362 32.1733 12.0882 33.5953C12.0042 34.3043 11.9642 35.0214 11.9482 35.6901H23.6722C23.6162 33.547 23.3282 30.9003 22.0722 29.5709C21.8002 29.3164 21.4768 29.1241 21.1242 29.007Z" fill="#003FA9"/>
<path d="M12.6721 25.6237C12.7986 25.3733 12.9758 25.1524 13.1921 24.9751C13.324 24.8605 13.4723 24.7668 13.6321 24.6971C13.6521 24.818 13.6761 24.9388 13.7041 25.0677C13.7841 25.4706 13.8881 25.8734 14.0321 26.3609C14.0521 26.4253 14.0761 26.4898 14.1001 26.5542C14.1606 26.7151 14.2328 26.8713 14.3161 27.0215C14.3601 27.094 14.4041 27.1706 14.4521 27.2391C14.5549 27.382 14.6686 27.5167 14.7921 27.6419C14.8521 27.7023 14.9081 27.7627 14.9721 27.8191C15.0361 27.8755 15.1081 27.94 15.1801 27.9924C15.3297 28.1073 15.4874 28.211 15.6521 28.3026C16.311 28.6637 17.05 28.8508 17.8001 28.8464C19.7241 28.8464 21.0321 27.8433 21.5041 26.5583C21.5241 26.4978 21.5481 26.4374 21.5681 26.373C21.7314 25.8261 21.865 25.2707 21.9681 24.7092C22.3824 24.9006 22.7206 25.227 22.9281 25.6358C23.2444 26.5046 23.2287 27.4608 22.8841 28.3187C23.5841 27.8836 24.5881 27.1101 24.7441 26.5019C24.8677 26.0205 24.8167 25.5105 24.6001 25.0637C24.4503 24.7486 24.2298 24.4727 23.9561 24.258C23.7459 24.0778 23.5026 23.941 23.2401 23.8552C22.9458 23.7804 22.6436 23.7412 22.3401 23.7384H22.0721C22.116 23.2936 22.0985 22.8449 22.0201 22.405C21.9154 21.9436 21.7028 21.5141 21.4001 21.1521C21.199 20.915 20.9707 20.7027 20.7201 20.5197C20.6044 20.4308 20.4828 20.3501 20.3561 20.278C19.9677 20.0458 19.549 19.8695 19.1121 19.7543L18.9881 19.7261C18.5995 19.6289 18.2005 19.5802 17.8001 19.5811C17.301 19.5823 16.8049 19.6583 16.3281 19.8067C15.6752 19.999 15.0728 20.3347 14.5641 20.7896C14.0663 21.2219 13.7164 21.8013 13.5641 22.4453C13.4856 22.8852 13.4681 23.3339 13.5121 23.7787H13.2441C12.9406 23.7814 12.6384 23.8207 12.3441 23.8955C12.0816 23.9813 11.8383 24.1181 11.6281 24.2983C11.3544 24.513 11.1339 24.7888 10.9841 25.104C10.7719 25.5539 10.7265 26.0655 10.8561 26.5462C11.0161 27.1706 12.0161 27.9279 12.7161 28.363C12.357 27.4885 12.3412 26.5093 12.6721 25.6237Z" fill="#003FA9"/>
</svg>
