<svg width="36" height="37" viewBox="0 0 36 37" fill="none" xmlns="http://www.w3.org/2000/svg">
<path d="M28.3838 34.0107H2.70117V36.6906H28.3838V34.0107Z" fill="#84E7FF"/>
<path d="M25.7274 29.5439H5.3584V32.2238H25.7274V29.5439Z" fill="#003FA9"/>
<path d="M30.9963 11.4547V2.03038C30.9963 1.675 30.8564 1.33418 30.6072 1.08289C30.3581 0.831602 30.0202 0.69043 29.6679 0.69043H1.32841C0.976096 0.69043 0.638209 0.831602 0.389083 1.08289C0.139957 1.33418 0 1.675 0 2.03038V18.0651C0 18.4205 0.139957 18.7613 0.389083 19.0126C0.638209 19.2639 0.976096 19.4051 1.32841 19.4051H22.1845V24.3629C22.1845 26.6854 25.6384 27.7574 29.0923 27.7574C32.5461 27.7574 36 26.7301 36 24.3629V14.7152C36 12.8393 33.6974 11.7673 30.9963 11.4547ZM15.7196 15.3852C14.6686 15.3852 13.6413 15.0709 12.7675 14.4819C11.8936 13.893 11.2126 13.0559 10.8104 12.0765C10.4082 11.0971 10.303 10.0195 10.508 8.97976C10.713 7.94006 11.2191 6.98504 11.9622 6.23546C12.7054 5.48588 13.6522 4.97541 14.6829 4.7686C15.7137 4.56179 16.7821 4.66793 17.753 5.0736C18.7239 5.47927 19.5538 6.16625 20.1377 7.04767C20.7216 7.92908 21.0332 8.96534 21.0332 10.0254C21.0332 11.4469 20.4734 12.8102 19.4769 13.8154C18.4804 14.8205 17.1288 15.3852 15.7196 15.3852ZM29.0923 14.0006C30.4411 13.957 31.7839 14.2005 33.0332 14.7152C31.7839 15.2299 30.4411 15.4734 29.0923 15.4299C27.7434 15.4734 26.4006 15.2299 25.1513 14.7152C26.4006 14.2005 27.7434 13.957 29.0923 14.0006ZM33.3432 24.1842C32.9446 24.5415 31.3948 25.0775 29.0923 25.0775C26.7897 25.0775 25.2399 24.5415 24.8413 24.1842V22.2189C26.2163 22.6541 27.6513 22.8652 29.0923 22.8443C30.5332 22.8652 31.9682 22.6541 33.3432 22.2189V24.1842ZM33.3432 19.2711C32.9446 19.6284 31.3948 20.1644 29.0923 20.1644C26.7897 20.1644 25.2399 19.6284 24.8413 19.2711V17.4845C26.2163 17.9196 27.6513 18.1307 29.0923 18.1098C30.5332 18.1307 31.9682 17.9196 33.3432 17.4845V19.2711Z" fill="white"/>
</svg>
