<svg width="36" height="37" viewBox="0 0 36 37" fill="none" xmlns="http://www.w3.org/2000/svg">
<path d="M14.3496 36.4849L21.6501 31.3166V11.1094L14.3496 16.2776V36.4849Z" fill="white"/>
<path d="M23.187 31.2536L30.9998 35.3667V15.0163L23.187 10.9033V31.2536Z" fill="#84E7FF"/>
<path d="M12.8128 16.3396L5 12.2266V32.5769L12.8128 36.6899V16.3396Z" fill="#84E7FF"/>
<path fill-rule="evenodd" clip-rule="evenodd" d="M18.2948 0.69043C22.9509 0.69043 26.0442 5.47561 24.1231 9.58637L19.2455 19.3441C18.8787 20.078 17.8329 20.0822 17.4602 19.3513L12.8247 10.2608C10.285 6.11791 13.2805 0.69043 18.2948 0.69043ZM18.2948 4.191C19.988 4.191 21.3555 5.53984 21.3555 7.20983C21.3555 8.87983 19.988 10.2287 18.2948 10.2287C16.6017 10.2287 15.2342 8.87983 15.2342 7.20983C15.2342 5.53984 16.6017 4.191 18.2948 4.191ZM18.2948 3.32388C20.4438 3.32388 22.2021 5.05811 22.2021 7.17772C22.2021 9.29733 20.4438 10.9994 18.2948 10.9994C16.1459 10.9994 14.4202 9.29733 14.4202 7.17772C14.4202 5.05811 16.1459 3.32388 18.2948 3.32388Z" fill="#003FA9"/>
</svg>
