<svg width="36" height="37" viewBox="0 0 36 37" fill="none" xmlns="http://www.w3.org/2000/svg">
<path fill-rule="evenodd" clip-rule="evenodd" d="M17.6933 7.98242C23.7009 7.98242 28.5731 12.7179 28.5731 18.557C28.5731 24.3965 23.7009 29.132 17.6933 29.132C11.6857 29.132 6.81348 24.3965 6.81348 18.557C6.81348 12.7179 11.6857 7.98242 17.6933 7.98242ZM17.6003 11.4027C19.6807 11.4027 21.5651 12.2228 22.9284 13.5484C24.2922 14.8735 25.1356 16.7044 25.1356 18.7265C25.1356 20.7486 24.2918 22.5795 22.9284 23.9051C21.5651 25.2302 19.6807 26.0504 17.6003 26.0504C15.5203 26.0504 13.636 25.2302 12.2727 23.9051C10.9088 22.5796 10.0655 20.7486 10.0655 18.7265C10.0655 16.7044 10.9088 14.8735 12.2727 13.5479C13.636 12.2228 15.5203 11.4026 17.6003 11.4026V11.4027Z" fill="#84E7FF"/>
<path fill-rule="evenodd" clip-rule="evenodd" d="M2.77023 16.3535L2.37795 31.7305C2.92252 32.9751 4.12684 32.9835 4.64635 31.7305L4.25407 16.355C8.84388 15.576 7.69546 4.66938 3.51239 4.69046C-0.348272 4.72559 -1.6244 15.7193 2.77024 16.3536L2.77023 16.3535Z" fill="#4DBDED"/>
<path fill-rule="evenodd" clip-rule="evenodd" d="M28.9283 12.2793C28.9124 16.1684 30.6478 16.1061 31.7201 16.1633L31.3302 31.5792C31.9013 33.0851 33.0275 33.0364 33.5986 31.5792L33.2083 16.1306C34.134 16.1179 35.975 16.1114 36.0005 12.2794L35.5586 4.69044H34.8665V11.233L33.0198 11.2372L32.9283 4.69043H31.977L31.8926 11.2372L30.0628 11.233V4.69044H29.3283L28.9283 12.2794L28.9283 12.2793Z" fill="#4DBDED"/>
<path fill-rule="evenodd" clip-rule="evenodd" d="M17.6293 12.2422C21.2914 12.2422 24.2614 15.1289 24.2614 18.6883C24.2614 22.2476 21.2914 25.1343 17.6293 25.1343C13.9671 25.1343 10.9971 22.2476 10.9971 18.6883C10.9971 15.1289 13.9671 12.2422 17.6293 12.2422Z" fill="white"/>
</svg>
