<svg width="36" height="37" viewBox="0 0 36 37" fill="none" xmlns="http://www.w3.org/2000/svg">
<path d="M10.7864 7.98927C12.7937 7.98927 14.4209 6.35537 14.4209 4.33985C14.4209 2.32433 12.7937 0.69043 10.7864 0.69043C8.77908 0.69043 7.15186 2.32433 7.15186 4.33985C7.15186 6.35537 8.77908 7.98927 10.7864 7.98927Z" fill="#003FA9"/>
<path d="M14.7619 24.07C14.4212 21.637 14.2319 19.1661 14.2319 16.7331V11.9813H18.245L19.0022 10.4227C19.305 9.7764 19.7594 9.20618 20.2515 8.75H9.2344C7.72002 8.75 6.31921 9.62434 5.6756 10.9929L2.15466 18.4438C1.77607 19.2421 2.11681 20.2305 2.91186 20.6106C3.13901 20.7247 3.36617 20.7627 3.59333 20.7627C4.19908 20.7627 4.76697 20.4205 5.03199 19.8503L7.30356 15.0605V16.7331C7.30356 19.1661 7.11426 21.637 6.77353 24.07L5.29701 34.524C5.14557 35.5504 5.8649 36.5008 6.88711 36.6529C6.96283 36.6529 7.07641 36.6529 7.15212 36.6529C8.06075 36.6529 8.89366 35.9686 9.00724 35.0182L10.4838 24.5641C10.5595 23.9179 10.6352 23.3097 10.7109 22.6634C10.7866 23.3097 10.8624 23.9179 10.9381 24.5641L12.4146 35.0182C12.566 35.9686 13.3611 36.6529 14.2697 36.6529C14.3454 36.6529 14.459 36.6529 14.5347 36.6529C15.5569 36.5008 16.2763 35.5504 16.1248 34.524L14.7619 24.07Z" fill="#003FA9"/>
<path d="M33.8461 18.4438L30.3251 10.9929C29.6815 9.62434 28.2807 8.75 26.7664 8.75H23.6997C22.1853 8.75 20.7845 9.62434 20.1409 10.9929L16.62 18.4438C16.2414 19.2421 16.5821 20.2305 17.3772 20.6106C17.6043 20.7247 17.8315 20.7627 18.0587 20.7627C18.6644 20.7627 19.2323 20.4205 19.5352 19.8503L21.8068 15.0605V16.7331C21.8068 19.1661 21.6175 21.637 21.2767 24.07L19.8002 34.524C19.6488 35.5504 20.3681 36.5008 21.3903 36.6529C21.466 36.6529 21.5796 36.6909 21.6553 36.6909C22.5639 36.6909 23.3969 36.0066 23.5104 35.0562L24.987 24.6022C25.0627 23.9559 25.1384 23.3477 25.2141 22.7014C25.2898 23.3477 25.3656 23.9559 25.4413 24.6022L26.9178 35.0562C27.0692 36.0066 27.8643 36.6909 28.7729 36.6909C28.8486 36.6909 28.9622 36.6909 29.0379 36.6529C30.0601 36.5008 30.7795 35.5504 30.628 34.524L29.1515 24.07C28.8108 21.637 28.6215 19.1661 28.6215 16.7331V15.0224L30.893 19.8123C31.2716 20.6106 32.256 20.9527 33.051 20.5726C33.8839 20.1924 34.2247 19.2421 33.8461 18.4438Z" fill="white"/>
<path d="M25.2146 7.98927C27.2219 7.98927 28.8491 6.35537 28.8491 4.33985C28.8491 2.32433 27.2219 0.69043 25.2146 0.69043C23.2073 0.69043 21.5801 2.32433 21.5801 4.33985C21.5801 6.35537 23.2073 7.98927 25.2146 7.98927Z" fill="white"/>
</svg>
