<svg width="36" height="37" viewBox="0 0 36 37" fill="none" xmlns="http://www.w3.org/2000/svg">
<path d="M5.22334 7.69043C4.82647 8.94801 4.40959 10.2716 3.99112 11.5997C2.67568 11.5973 1.25103 11.6026 0 11.603C1.08059 12.413 2.19079 13.246 3.22458 14.0213C2.81971 15.3102 2.37843 16.7085 1.99236 17.9335C3.02655 17.1553 4.12594 16.3384 5.22094 15.5177C6.37875 16.3842 7.39053 17.1421 8.44552 17.9335C8.04545 16.6676 7.63177 15.3527 7.2133 14.0213C8.27829 13.2258 9.4305 12.3626 10.4419 11.603C9.10684 11.603 7.66658 11.6035 6.45356 11.603" fill="#003FA9"/>
<path d="M18.0017 7.69043C17.6048 8.94801 17.1879 10.2716 16.7694 11.5997C15.454 11.5973 14.0293 11.6026 12.7783 11.603C13.8589 12.413 14.9691 13.246 16.0029 14.0213C15.598 15.3102 15.1567 16.7085 14.7707 17.9335C15.8049 17.1553 16.9043 16.3384 17.9993 15.5177C19.1571 16.3842 20.1689 17.1421 21.2238 17.9335C20.8238 16.6676 20.4101 15.3527 19.9916 14.0213C21.0566 13.2258 22.2088 12.3626 23.2202 11.603C21.8852 11.603 20.4449 11.6035 19.2319 11.603" fill="white"/>
<path d="M30.7819 7.69043C30.3851 8.94801 29.9682 10.2716 29.5497 11.5997C28.2343 11.5973 26.8096 11.6026 25.5586 11.603C26.6392 12.413 27.7494 13.246 28.7832 14.0213C28.3783 15.3102 27.937 16.7085 27.551 17.9335C28.5851 17.1553 29.6845 16.3384 30.7795 15.5177C31.9373 16.3842 32.9491 17.1421 34.0041 17.9335C33.604 16.6676 33.1904 15.3527 32.7719 14.0213C33.8369 13.2258 34.9891 12.3626 36.0005 11.603C34.6654 11.603 33.2252 11.6035 32.0122 11.603" fill="#84E7FF"/>
<path d="M11.612 19.4473C11.2151 20.7048 10.7983 22.0284 10.3798 23.3566C9.06435 23.3541 7.6397 23.3595 6.38867 23.3599C7.46927 24.1698 8.57947 25.0028 9.61325 25.7781C9.20838 27.067 8.7671 28.4653 8.38103 29.6903C9.41522 28.9121 10.5146 28.0952 11.6096 27.2746C12.7674 28.141 13.7792 28.8989 14.8342 29.6903C14.4341 28.4245 14.0204 27.1095 13.602 25.7781C14.667 24.9826 15.8192 24.1195 16.8306 23.3599C15.4955 23.3599 14.0553 23.3603 12.8422 23.3599" fill="#84E7FF"/>
<path d="M24.3913 19.4473C23.9944 20.7048 23.5776 22.0284 23.1591 23.3566C21.8437 23.3541 20.419 23.3595 19.168 23.3599C20.2486 24.1698 21.3588 25.0028 22.3926 25.7781C21.9877 27.067 21.5464 28.4653 21.1603 29.6903C22.1945 28.9121 23.2939 28.0952 24.3889 27.2746C25.5467 28.141 26.5585 28.8989 27.6135 29.6903C27.2134 28.4245 26.7997 27.1095 26.3813 25.7781C27.4463 24.9826 28.5985 24.1195 29.6098 23.3599C28.2748 23.3599 26.8345 23.3603 25.6215 23.3599" fill="#003FA9"/>
</svg>
