<svg width="311" height="73" viewBox="0 0 311 73" fill="none" xmlns="http://www.w3.org/2000/svg">
<path d="M5.07463 15.81C2.59996 17.2392 1.07558 19.8799 1.07558 22.7376V49.7331C1.07558 52.5908 2.59996 55.2315 5.07464 56.6607L28.4492 70.1603C30.9246 71.59 33.9748 71.5901 36.4504 70.1607L59.8315 56.6606C62.3066 55.2315 63.8313 52.5905 63.8313 49.7325V22.7382C63.8313 19.8802 62.3066 17.2392 59.8315 15.8101L36.4504 2.30998C33.9748 0.880598 30.9246 0.880757 28.4492 2.3104L5.07463 15.81Z" fill="url(#paint0_linear)"/>
<path d="M-3.43323e-05 20.6726C-3.43323e-05 20.6726 0.394997 18.5871 0.691269 18.2892C0.987545 17.9913 1.28382 16.601 4.24655 15.0117C7.20928 13.4224 15.4062 8.55658 15.4062 8.55658C18.4484 6.78599 22.2205 4.5842 25.4795 2.69732C28.6397 0.867623 29.2323 0.512797 30.3186 0.214589C31.4049 -0.0836193 32.6888 0.0159702 32.6888 0.0159702C32.6888 0.0159702 33.2813 0.0156476 33.7751 0.214589C34.2689 0.41353 35.7503 1.20768 35.7503 1.20768C35.7503 1.20768 49.5764 9.25174 52.0454 10.6421C54.5143 12.0324 51.6503 18.1896 46.0212 17.8917C40.392 17.5937 36.7379 13.6217 33.5776 13.1251C30.4174 12.6286 28.9361 16.0048 29.7261 19.0834C30.5161 22.162 49.5765 28.4184 50.0702 32.3908C50.5639 36.3632 48.1938 38.747 43.6509 39.1442C39.108 39.5414 26.3684 26.333 23.6031 26.2336C20.8379 26.1343 19.9492 28.3191 20.5417 30.206C21.1341 32.0929 30.22 35.4694 31.01 40.2363C31.8 45.0031 27.0597 47.4859 23.6031 47.6845C20.1465 47.8831 15.11 40.5342 12.246 40.2363C9.38195 39.9383 9.97464 43.4142 10.7646 45.1024C11.5546 46.7907 15.7026 48.0817 16.7889 51.3589C17.8751 54.6361 16.9864 64.1698 15.11 63.0774C13.2335 61.985 2.86401 56.0265 2.86401 56.0265C2.86401 56.0265 1.87651 55.4306 1.08637 54.2389C0.296238 53.0472 0.197483 52.4513 0.0987968 51.3589C0.000110626 50.2665 -3.43323e-05 20.6726 -3.43323e-05 20.6726Z" fill="#353068"/>
<path d="M42.9731 37.1121C44.5243 36.1618 48.6992 36.3559 52.1657 37.5407C55.6321 38.7254 51.9667 43.6552 50.1949 46.3696C48.4232 49.1616 46.0159 51.3525 42.9731 52.9423C39.9688 54.5322 36.7913 55.3271 33.4403 55.3271C27.817 55.3271 23.041 53.3107 19.1123 49.2779C15.2222 45.2451 13.2771 40.4173 13.2771 34.7946C13.2771 29.3658 15.2799 24.6544 19.2856 20.6603C23.3298 16.6275 28.0481 14.6111 33.4403 14.6111C38.5245 14.6111 42.8576 16.1816 46.4396 19.3225C50.0216 22.4247 54.7733 27.7467 53.0203 30.2546C51.2673 32.7625 45.1919 32.2782 42.4435 31.3261C39.6951 30.374 36.9261 26.7677 33.3826 26.7677C31.1486 26.7677 29.2421 27.6014 27.6629 29.2689C26.0837 30.9363 25.2942 32.8751 25.2942 35.0854C25.2942 37.2957 26.103 39.1958 27.7207 40.7857C29.3384 42.3756 31.2449 43.1705 33.4403 43.1705C35.7128 43.1705 37.5616 42.4531 38.9867 41.0184C40.4118 39.5836 41.4219 38.0624 42.9731 37.1121Z" fill="#11E2E4"/>
<path d="M39.4726 37.5014C40.4542 36.8966 43.0963 37.0202 45.2901 37.7741C47.4838 38.528 45.1641 41.6652 44.0429 43.3925C42.9216 45.1692 41.3982 46.5634 39.4726 47.5752C37.5713 48.5869 35.5604 49.0928 33.4398 49.0928C29.881 49.0928 26.8585 47.8096 24.3723 45.2433C21.9104 42.6769 20.6794 39.6047 20.6794 36.0266C20.6794 32.5719 21.9469 29.5737 24.4819 27.0321C27.0413 24.4657 30.0273 23.1825 33.4398 23.1825C36.6573 23.1825 39.3994 24.1819 41.6663 26.1807C43.9332 28.1548 46.9404 31.5416 45.831 33.1375C44.7216 34.7335 40.8767 34.4252 39.1374 33.8194C37.3981 33.2135 35.6457 30.9186 33.4032 30.9186C31.9894 30.9186 30.7829 31.4491 29.7835 32.5102C28.7841 33.5713 28.2844 34.8051 28.2844 36.2117C28.2844 37.6182 28.7963 38.8274 29.8201 39.8391C30.8438 40.8509 32.0504 41.3567 33.4398 41.3567C34.8779 41.3567 36.0479 40.9002 36.9498 39.9872C37.8516 39.0742 38.4909 38.1061 39.4726 37.5014Z" fill="white"/>
<path d="M114.461 49.9347C113.108 51.096 111.592 51.9872 109.914 52.6083C108.236 53.2295 106.496 53.5401 104.696 53.5401C103.316 53.5401 101.983 53.3578 100.697 52.9932C99.4249 52.6421 98.2272 52.1425 97.1038 51.4943C95.994 50.8327 94.979 50.0428 94.0587 49.1245C93.1384 48.2063 92.3466 47.1936 91.6835 46.0863C91.0338 44.9656 90.5263 43.7706 90.1609 42.5013C89.809 41.2185 89.6331 39.8884 89.6331 38.5111C89.6331 37.1338 89.809 35.8037 90.1609 34.5209C90.5263 33.2382 91.0338 32.0431 91.6835 30.9359C92.3466 29.8151 93.1384 28.7956 94.0587 27.8774C94.979 26.9592 95.994 26.176 97.1038 25.5279C98.2272 24.8662 99.4249 24.3599 100.697 24.0088C101.983 23.6442 103.316 23.4619 104.696 23.4619C106.496 23.4619 108.236 23.7725 109.914 24.3936C111.592 25.0013 113.108 25.8925 114.461 27.0672L111.375 32.1309C110.523 31.2127 109.515 30.5105 108.351 30.0244C107.187 29.5248 105.969 29.275 104.696 29.275C103.411 29.275 102.206 29.5181 101.083 30.0042C99.9595 30.4903 98.9783 31.1519 98.1392 31.9891C97.3001 32.8128 96.6369 33.7918 96.1497 34.926C95.6625 36.0468 95.4188 37.2418 95.4188 38.5111C95.4188 39.7804 95.6625 40.9754 96.1497 42.0962C96.6369 43.2034 97.3001 44.1757 98.1392 45.0129C98.9783 45.85 99.9595 46.5117 101.083 46.9978C102.206 47.4839 103.411 47.727 104.696 47.727C105.969 47.727 107.187 47.4839 108.351 46.9978C109.515 46.4982 110.523 45.7893 111.375 44.8711L114.461 49.9347Z" fill="#2E73D9"/>
<path d="M123.678 52.9122H117.851V23.867H123.678V35.4932H135.31V23.867H141.137V52.9122H135.31V41.3063H123.678V52.9122Z" fill="#2E73D9"/>
<path d="M175.08 38.5111C175.08 39.8884 174.897 41.2185 174.532 42.5013C174.18 43.7706 173.679 44.9656 173.03 46.0863C172.38 47.1936 171.595 48.2063 170.675 49.1245C169.754 50.0428 168.739 50.8327 167.63 51.4943C166.52 52.1425 165.322 52.6421 164.036 52.9932C162.751 53.3578 161.417 53.5401 160.037 53.5401C158.657 53.5401 157.323 53.3578 156.038 52.9932C154.765 52.6421 153.568 52.1425 152.444 51.4943C151.335 50.8327 150.32 50.0428 149.399 49.1245C148.479 48.2063 147.687 47.1936 147.024 46.0863C146.374 44.9656 145.867 43.7706 145.501 42.5013C145.15 41.2185 144.974 39.8884 144.974 38.5111C144.974 37.1338 145.15 35.8037 145.501 34.5209C145.867 33.2382 146.374 32.0431 147.024 30.9359C147.687 29.8286 148.479 28.8159 149.399 27.8977C150.32 26.9795 151.335 26.1963 152.444 25.5481C153.568 24.9 154.765 24.4004 156.038 24.0493C157.323 23.6847 158.657 23.5024 160.037 23.5024C161.417 23.5024 162.751 23.6847 164.036 24.0493C165.322 24.4004 166.52 24.9 167.63 25.5481C168.739 26.1963 169.754 26.9795 170.675 27.8977C171.595 28.8159 172.38 29.8286 173.03 30.9359C173.679 32.0431 174.18 33.2382 174.532 34.5209C174.897 35.8037 175.08 37.1338 175.08 38.5111ZM169.294 38.5111C169.294 37.2418 169.051 36.0468 168.563 34.926C168.076 33.7918 167.413 32.8128 166.574 31.9891C165.748 31.1519 164.767 30.4903 163.63 30.0042C162.507 29.5181 161.309 29.275 160.037 29.275C158.751 29.275 157.547 29.5181 156.423 30.0042C155.3 30.4903 154.319 31.1519 153.48 31.9891C152.641 32.8128 151.977 33.7918 151.49 34.926C151.003 36.0468 150.759 37.2418 150.759 38.5111C150.759 39.7804 151.003 40.9754 151.49 42.0962C151.977 43.2034 152.641 44.1757 153.48 45.0129C154.319 45.85 155.3 46.5117 156.423 46.9978C157.547 47.4839 158.751 47.727 160.037 47.727C161.309 47.727 162.507 47.4839 163.63 46.9978C164.767 46.5117 165.748 45.85 166.574 45.0129C167.413 44.1757 168.076 43.2034 168.563 42.0962C169.051 40.9754 169.294 39.7804 169.294 38.5111Z" fill="#2E73D9"/>
<path d="M207.44 38.5111C207.44 39.8884 207.257 41.2185 206.892 42.5013C206.54 43.7706 206.039 44.9656 205.389 46.0863C204.74 47.1936 203.955 48.2063 203.035 49.1245C202.114 50.0428 201.099 50.8327 199.989 51.4943C198.88 52.1425 197.682 52.6421 196.396 52.9932C195.11 53.3578 193.777 53.5401 192.397 53.5401C191.016 53.5401 189.683 53.3578 188.398 52.9932C187.125 52.6421 185.928 52.1425 184.804 51.4943C183.694 50.8327 182.679 50.0428 181.759 49.1245C180.839 48.2063 180.047 47.1936 179.384 46.0863C178.734 44.9656 178.227 43.7706 177.861 42.5013C177.509 41.2185 177.333 39.8884 177.333 38.5111C177.333 37.1338 177.509 35.8037 177.861 34.5209C178.227 33.2382 178.734 32.0431 179.384 30.9359C180.047 29.8286 180.839 28.8159 181.759 27.8977C182.679 26.9795 183.694 26.1963 184.804 25.5481C185.928 24.9 187.125 24.4004 188.398 24.0493C189.683 23.6847 191.016 23.5024 192.397 23.5024C193.777 23.5024 195.11 23.6847 196.396 24.0493C197.682 24.4004 198.88 24.9 199.989 25.5481C201.099 26.1963 202.114 26.9795 203.035 27.8977C203.955 28.8159 204.74 29.8286 205.389 30.9359C206.039 32.0431 206.54 33.2382 206.892 34.5209C207.257 35.8037 207.44 37.1338 207.44 38.5111ZM201.654 38.5111C201.654 37.2418 201.41 36.0468 200.923 34.926C200.436 33.7918 199.773 32.8128 198.934 31.9891C198.108 31.1519 197.127 30.4903 195.99 30.0042C194.867 29.5181 193.669 29.275 192.397 29.275C191.111 29.275 189.907 29.5181 188.783 30.0042C187.66 30.4903 186.679 31.1519 185.84 31.9891C185 32.8128 184.337 33.7918 183.85 34.926C183.363 36.0468 183.119 37.2418 183.119 38.5111C183.119 39.7804 183.363 40.9754 183.85 42.0962C184.337 43.2034 185 44.1757 185.84 45.0129C186.679 45.85 187.66 46.5117 188.783 46.9978C189.907 47.4839 191.111 47.727 192.397 47.727C193.669 47.727 194.867 47.4839 195.99 46.9978C197.127 46.5117 198.108 45.85 198.934 45.0129C199.773 44.1757 200.436 43.2034 200.923 42.0962C201.41 40.9754 201.654 39.7804 201.654 38.5111Z" fill="#2E73D9"/>
<path d="M222.564 52.9122H216.758V29.6801H208.008V23.867H231.294V29.6801H222.564V52.9122Z" fill="#2E73D9"/>
<path d="M240.206 52.9122H234.379V23.867H240.206V35.4932H251.838V23.867H257.665V52.9122H251.838V41.3063H240.206V52.9122Z" fill="#2E73D9"/>
<path d="M283.041 52.9122H263.085V23.867H283.041V29.6801H268.911V35.4932H278.473V41.3063H268.911V47.0991H283.041V52.9122Z" fill="#2E73D9"/>
<path d="M292.948 29.6801V41.3063H298.774C299.573 41.3063 300.324 41.1577 301.028 40.8607C301.731 40.5501 302.347 40.1315 302.875 39.6049C303.403 39.0782 303.816 38.4639 304.113 37.7617C304.425 37.046 304.58 36.2899 304.58 35.4932C304.58 34.6965 304.425 33.9471 304.113 33.2449C303.816 32.5292 303.403 31.9081 302.875 31.3815C302.347 30.8549 301.731 30.443 301.028 30.1459C300.324 29.8354 299.573 29.6801 298.774 29.6801H292.948ZM292.948 52.9122H287.121V23.867H298.774C299.843 23.867 300.872 24.0088 301.86 24.2924C302.848 24.5624 303.768 24.954 304.621 25.4671C305.487 25.9667 306.272 26.5744 306.976 27.29C307.693 27.9922 308.302 28.7754 308.803 29.6396C309.317 30.5038 309.71 31.4287 309.98 32.4145C310.265 33.4002 310.407 34.4264 310.407 35.4932C310.407 36.4924 310.278 37.4646 310.021 38.4098C309.777 39.3551 309.419 40.253 308.945 41.1037C308.485 41.9544 307.916 42.7376 307.24 43.4532C306.563 44.1689 305.805 44.7901 304.966 45.3167L308.194 52.9122H302.002L299.464 47.0586L292.948 47.0991V52.9122Z" fill="#2E73D9"/>
<defs>
<linearGradient id="paint0_linear" x1="15.2253" y1="11.3966" x2="76.689" y2="96.6276" gradientUnits="userSpaceOnUse">
<stop offset="0.184357" stop-color="#00FFE0"/>
<stop offset="0.6396" stop-color="#4F7EF7"/>
<stop offset="0.999013" stop-color="#3402B7"/>
</linearGradient>
</defs>
</svg>
