<svg width="12" height="6" viewBox="0 0 12 6" fill="none" xmlns="http://www.w3.org/2000/svg">
<path d="M6.03749 5.99924C6.28251 5.99208 6.51601 5.90571 6.69362 5.75655L11.6926 1.52061C11.884 1.35823 11.9945 1.13538 11.9998 0.901097C12.0051 0.66681 11.9047 0.440277 11.7207 0.271321C11.5368 0.102364 11.2843 0.00482833 11.0189 0.000174483C10.7534 -0.00447936 10.4968 0.0841253 10.3054 0.246501L6 3.89229L1.69463 0.246501C1.50321 0.0841253 1.24656 -0.00447936 0.981125 0.000174483C0.715694 0.00482833 0.46323 0.102364 0.27927 0.271321C0.0953106 0.440277 -0.00507478 0.66681 0.00019767 0.901097C0.00547012 1.13538 0.115969 1.35823 0.307384 1.52061L5.30638 5.75655C5.40356 5.83824 5.51837 5.90182 5.64398 5.94351C5.76958 5.98521 5.90341 6.00416 6.03749 5.99924Z" fill="#A5C6FF"/>
</svg>
