<svg width="32" height="32" viewBox="0 0 32 32" fill="none" xmlns="http://www.w3.org/2000/svg">
<path d="M24.8261 6.00977H7.17389C6.52607 6.00977 6 6.53123 6 7.18308V24.8266C6 25.4741 6.52607 25.9999 7.17389 25.9999H24.8261C25.4739 25.9999 26 25.4741 26 24.8266V7.18308C26 6.53123 25.4739 6.00977 24.8261 6.00977ZM12.7043 19.325C12.7043 19.325 13.0652 16.5611 10.3739 17.0956L12.1739 16.0049L13.5652 15.1618L15.9609 15.7789L15.7522 16.0049L12.7043 19.325ZM21.6261 17.0956C18.9348 16.5611 19.2956 19.325 19.2956 19.325L16.2478 16.0049L16.0391 15.7789L18.4348 15.1618L19.8261 16.0049L21.6261 17.0956Z" stroke="#202020" stroke-width="0.8" stroke-miterlimit="10" stroke-linecap="round" stroke-linejoin="round"/>
<path d="M16.0005 6V25.9902" stroke="#202020" stroke-width="0.8" stroke-miterlimit="10" stroke-linecap="round" stroke-linejoin="round"/>
<path d="M15.9605 15.7753L15.7518 16.0012L12.704 19.3214C12.704 19.3214 13.0648 16.5575 10.3735 17.092L12.1735 16.0012L13.5648 15.1582L15.9605 15.7753Z" stroke="#202020" stroke-width="0.8" stroke-miterlimit="10" stroke-linecap="round" stroke-linejoin="round"/>
<path d="M12.1739 15.999H6" stroke="#202020" stroke-width="0.8" stroke-miterlimit="10" stroke-linecap="round" stroke-linejoin="round"/>
<path d="M21.626 17.092C18.9347 16.5575 19.2956 19.3214 19.2956 19.3214L16.2478 16.0012L16.0391 15.7753L18.4347 15.1582L19.826 16.0012L21.626 17.092Z" stroke="#202020" stroke-width="0.8" stroke-miterlimit="10" stroke-linecap="round" stroke-linejoin="round"/>
<path d="M26.0001 15.999H19.8262" stroke="#202020" stroke-width="0.8" stroke-miterlimit="10" stroke-linecap="round" stroke-linejoin="round"/>
<path d="M16.2476 15.999H15.9998H15.752" stroke="#202020" stroke-width="0.8" stroke-miterlimit="10" stroke-linecap="round" stroke-linejoin="round"/>
<path d="M15.9996 15.6342C15.9909 15.682 15.9779 15.7298 15.9605 15.7732L13.5648 15.1561C13.4605 15.0127 13.3605 14.8606 13.2648 14.6998C12.5779 13.5048 12.5127 12.2532 13.1214 11.9012C13.7344 11.5492 14.7866 12.2315 15.4779 13.4222C15.7518 13.8959 15.9257 14.3826 15.9996 14.8128C16.0518 15.117 16.0518 15.3995 15.9996 15.6342Z" stroke="#202020" stroke-width="0.8" stroke-miterlimit="10" stroke-linecap="round" stroke-linejoin="round"/>
<path d="M18.7348 14.6998C18.6392 14.8606 18.5392 15.0127 18.4348 15.1561L16.0392 15.7732C16.0218 15.7298 16.0087 15.682 16.0001 15.6342C15.9479 15.3995 15.9479 15.117 16.0001 14.8128C16.074 14.3826 16.2479 13.8959 16.5218 13.4222C17.2131 12.2315 18.2653 11.5492 18.8783 11.9012C19.487 12.2532 19.4262 13.5048 18.7348 14.6998Z" stroke="#202020" stroke-width="0.8" stroke-miterlimit="10" stroke-linecap="round" stroke-linejoin="round"/>
</svg>
