<svg width="32" height="32" viewBox="0 0 32 32" fill="none" xmlns="http://www.w3.org/2000/svg">
<path d="M16 26C13.3434 26 10.787 24.95 8.93233 23.05C5.02256 19.15 5.02256 12.8 8.93233 8.9C10.787 7.05 13.3434 6 16 6C18.6566 6 21.213 7.05 23.0677 8.95C26.9774 12.85 26.9774 19.2 23.0677 23.1C21.213 24.95 18.6566 26 16 26ZM16 7C13.594 7 11.3383 7.95 9.63409 9.65C6.12531 13.15 6.12531 18.85 9.63409 22.4C11.3383 24.05 13.594 25 16 25C18.406 25 20.6617 24.05 22.3659 22.35C25.8747 18.85 25.8747 13.15 22.3659 9.6C20.6617 7.95 18.406 7 16 7ZM16.7519 12.25C16.5514 12.45 16.3509 12.5 16.1003 12.5C15.8496 12.5 15.599 12.4 15.4486 12.25C15.2481 12.05 15.198 11.85 15.198 11.6C15.198 11.35 15.2982 11.1 15.4486 10.95C15.6491 10.75 15.8496 10.7 16.1003 10.7C16.3509 10.7 16.5514 10.8 16.7519 10.95C16.9524 11.15 17.0025 11.35 17.0025 11.6C17.0025 11.85 16.9524 12.1 16.7519 12.25ZM15.3985 20.8V14.05C15.3985 13.95 15.4987 13.85 15.599 13.85H16.6015C16.7018 13.85 16.802 13.95 16.802 14.05V20.85C16.802 20.95 16.7018 21.05 16.6015 21.05H15.599C15.4987 21 15.3985 20.9 15.3985 20.8Z" fill="#202020"/>
</svg>
