<svg width="22" height="22" viewBox="0 0 22 22" fill="none" xmlns="http://www.w3.org/2000/svg">
<path d="M13.7587 10.8254C15.5397 9.84762 16.7619 7.96191 16.7619 5.7619C16.7619 2.58413 14.1778 0 11 0C7.82222 0 5.2381 2.58413 5.2381 5.7619C5.2381 7.92698 6.46032 9.84762 8.24127 10.8254C3.52698 12.0476 0 16.3429 0 21.4762C0 21.7556 0.244444 22 0.52381 22C0.803175 22 1.04762 21.7556 1.04762 21.4762C1.04762 15.9937 5.51746 11.5238 11 11.5238C16.4825 11.5238 20.9524 15.9937 20.9524 21.4762C20.9524 21.7556 21.1968 22 21.4762 22C21.7556 22 22 21.7556 22 21.4762C22 16.3429 18.473 12.0476 13.7587 10.8254ZM6.28571 5.7619C6.28571 3.17778 8.41587 1.04762 11 1.04762C13.5841 1.04762 15.7143 3.17778 15.7143 5.7619C15.7143 8.34603 13.5841 10.4762 11 10.4762C8.41587 10.4762 6.28571 8.34603 6.28571 5.7619Z" fill="#202020"/>
</svg>
