<svg width="20" height="20" viewBox="0 0 20 20" fill="none" xmlns="http://www.w3.org/2000/svg">
<path d="M7.15275 4.11529C7.1526 4.05107 7.10914 3.98951 7.03189 3.94409C6.95465 3.89868 6.84992 3.87313 6.74068 3.87305H1.45699C1.34775 3.87313 1.24302 3.89868 1.16578 3.94409C1.08853 3.98951 1.04507 4.05107 1.04492 4.11529V4.4286H7.15275V4.11529Z" fill="#A5C7FF"/>
<path d="M8.30336 5.09375H0.445672C0.327521 5.09387 0.214254 5.13058 0.130708 5.19582C0.0471623 5.26105 0.000157221 5.3495 0 5.44176V7.11221H4.4171C4.57567 7.11445 4.72677 7.16521 4.8379 7.25357C4.94902 7.34192 5.01128 7.46081 5.01128 7.58465C5.01128 7.70849 4.94902 7.82738 4.8379 7.91574C4.72677 8.0041 4.57567 8.05486 4.4171 8.0571H0V9.55524H4.4171C4.57567 9.55748 4.72677 9.60824 4.8379 9.6966C4.94902 9.78496 5.01128 9.90385 5.01128 10.0277C5.01128 10.1515 4.94902 10.2704 4.8379 10.3588C4.72677 10.4471 4.57567 10.4979 4.4171 10.5001H0V11.9983H4.4171C4.57754 11.9983 4.7314 12.048 4.84485 12.1366C4.9583 12.2252 5.02203 12.3454 5.02203 12.4706C5.02203 12.5959 4.9583 12.7161 4.84485 12.8047C4.7314 12.8932 4.57754 12.943 4.4171 12.943H0V14.4413H4.4171C4.49654 14.4413 4.57521 14.4535 4.6486 14.4773C4.72199 14.501 4.78868 14.5358 4.84485 14.5797C4.90102 14.6235 4.94558 14.6756 4.97598 14.7329C5.00638 14.7902 5.02203 14.8516 5.02203 14.9137C5.02203 14.9757 5.00638 15.0371 4.97598 15.0944C4.94558 15.1518 4.90102 15.2038 4.84485 15.2477C4.78868 15.2916 4.72199 15.3263 4.6486 15.3501C4.57521 15.3738 4.49654 15.386 4.4171 15.386H0V16.8843H4.4171C4.57754 16.8843 4.7314 16.9341 4.84485 17.0227C4.9583 17.1113 5.02203 17.2314 5.02203 17.3567C5.02203 17.482 4.9583 17.6021 4.84485 17.6907C4.7314 17.7793 4.57754 17.8291 4.4171 17.8291H0V19.3449C0 19.3961 0.0260859 19.4453 0.072519 19.4816C0.118952 19.5178 0.181929 19.5382 0.247595 19.5382H8.30336C8.36903 19.5382 8.432 19.5178 8.47844 19.4816C8.52487 19.4453 8.55096 19.3961 8.55096 19.3449V5.28709C8.55096 5.23581 8.52487 5.18664 8.47844 5.15038C8.432 5.11412 8.36903 5.09375 8.30336 5.09375Z" fill="#A5C7FF"/>
<path d="M19.6859 2.36167L9.56016 0.0122918L9.55516 0.0111754C9.49133 -0.00235526 9.42462 -0.00361685 9.36012 0.00748687C9.29561 0.0185906 9.23502 0.0417662 9.18296 0.0752455C9.1309 0.108725 9.08875 0.151623 9.05972 0.200667C9.03069 0.249712 9.01556 0.303606 9.01548 0.358238L9.00586 19.7898C9.00586 19.8427 9.03118 19.8934 9.07626 19.9308C9.12134 19.9682 9.18249 19.9893 9.24627 19.9893H14.5312C14.5771 20.0036 14.6277 20.0036 14.6737 19.9893H19.7497C19.7813 19.9893 19.8126 19.9842 19.8418 19.9742C19.8709 19.9642 19.8974 19.9495 19.9198 19.931C19.9421 19.9125 19.9598 19.8905 19.9719 19.8663C19.984 19.8421 19.9902 19.8161 19.9901 19.7899L19.9999 2.7049C19.9997 2.62716 19.9689 2.55161 19.9122 2.48968C19.8555 2.42775 19.7761 2.38281 19.6859 2.36167ZM13.8157 4.71487C13.8157 4.65648 13.8296 4.59867 13.8565 4.54472C13.8835 4.49078 13.923 4.44177 13.9728 4.40049C14.0226 4.35921 14.0817 4.32648 14.1467 4.30415C14.2118 4.28182 14.2815 4.27033 14.3519 4.27035H14.8531C14.9953 4.27035 15.1316 4.31719 15.2322 4.40055C15.3327 4.48391 15.3892 4.59698 15.3892 4.71487V5.13052C15.3892 5.1889 15.3753 5.24672 15.3484 5.30067C15.3215 5.35462 15.282 5.40364 15.2322 5.44494C15.1825 5.48623 15.1234 5.51899 15.0583 5.54134C14.9933 5.56369 14.9235 5.57519 14.8531 5.57519H14.3519C14.2097 5.57519 14.0733 5.52834 13.9728 5.44495C13.8722 5.36156 13.8157 5.24845 13.8157 5.13052V4.71487ZM13.8157 7.37271C13.8157 7.31432 13.8296 7.25651 13.8565 7.20256C13.8835 7.14862 13.923 7.09961 13.9728 7.05833C14.0226 7.01705 14.0817 6.98432 14.1467 6.96199C14.2118 6.93966 14.2815 6.92817 14.3519 6.92819H14.8531C14.9953 6.92819 15.1316 6.97503 15.2322 7.05839C15.3327 7.14175 15.3892 7.25482 15.3892 7.37271V7.78836C15.3892 7.84674 15.3753 7.90456 15.3484 7.95851C15.3215 8.01246 15.282 8.06149 15.2322 8.10278C15.1825 8.14407 15.1234 8.17683 15.0583 8.19918C14.9933 8.22153 14.9235 8.23303 14.8531 8.23303H14.3519C14.2097 8.23303 14.0733 8.18618 13.9728 8.10279C13.8722 8.0194 13.8157 7.90629 13.8157 7.78836V7.37271ZM13.8157 10.0305C13.8157 9.97216 13.8296 9.91435 13.8565 9.8604C13.8835 9.80646 13.923 9.75745 13.9728 9.71617C14.0226 9.67489 14.0817 9.64216 14.1467 9.61983C14.2118 9.5975 14.2815 9.58601 14.3519 9.58603H14.8531C14.9953 9.58603 15.1316 9.63287 15.2322 9.71623C15.3327 9.79959 15.3892 9.91266 15.3892 10.0305V10.4462C15.3892 10.5046 15.3753 10.5624 15.3484 10.6164C15.3215 10.6703 15.282 10.7193 15.2322 10.7606C15.1825 10.8019 15.1234 10.8347 15.0583 10.857C14.9933 10.8794 14.9235 10.8909 14.8531 10.8909H14.3519C14.2097 10.8909 14.0733 10.844 13.9728 10.7606C13.8722 10.6772 13.8157 10.5641 13.8157 10.4462V10.0305ZM13.8157 12.6884C13.8157 12.63 13.8296 12.5722 13.8565 12.5182C13.8835 12.4643 13.923 12.4153 13.9728 12.374C14.0226 12.3327 14.0817 12.3 14.1467 12.2777C14.2118 12.2553 14.2815 12.2439 14.3519 12.2439H14.8531C14.9953 12.2439 15.1316 12.2907 15.2322 12.3741C15.3327 12.4574 15.3892 12.5705 15.3892 12.6884V13.1042C15.3891 13.2221 15.3326 13.3351 15.2321 13.4184C15.1316 13.5017 14.9953 13.5486 14.8531 13.5486H14.3519C14.2815 13.5486 14.2118 13.5371 14.1467 13.5148C14.0817 13.4924 14.0226 13.4597 13.9728 13.4184C13.923 13.3771 13.8835 13.3281 13.8565 13.2742C13.8296 13.2202 13.8157 13.1624 13.8157 13.104V12.6884ZM13.8157 15.3462C13.8157 15.2878 13.8296 15.23 13.8565 15.1761C13.8835 15.1221 13.923 15.0731 13.9728 15.0319C14.0226 14.9906 14.0817 14.9578 14.1467 14.9355C14.2118 14.9132 14.2815 14.9017 14.3519 14.9017H14.8531C14.9953 14.9017 15.1316 14.9485 15.2322 15.0319C15.3327 15.1153 15.3892 15.2283 15.3892 15.3462V15.762C15.3892 15.8799 15.3327 15.993 15.2322 16.0764C15.1316 16.1597 14.9953 16.2066 14.8531 16.2066H14.3519C14.2815 16.2066 14.2118 16.1951 14.1467 16.1728C14.0817 16.1504 14.0226 16.1177 13.9728 16.0764C13.923 16.0351 13.8835 15.9861 13.8565 15.9322C13.8296 15.8782 13.8157 15.8204 13.8157 15.762V15.3462ZM10.9161 4.71487C10.9161 4.59698 10.9726 4.48391 11.0731 4.40055C11.1736 4.31719 11.31 4.27035 11.4521 4.27035H11.9533C12.0237 4.27035 12.0934 4.28185 12.1585 4.30419C12.2235 4.32653 12.2826 4.35927 12.3324 4.40055C12.3822 4.44183 12.4216 4.49083 12.4486 4.54476C12.4755 4.59869 12.4894 4.6565 12.4894 4.71487V5.13052C12.4894 5.1889 12.4756 5.24672 12.4486 5.30067C12.4217 5.35462 12.3822 5.40364 12.3324 5.44494C12.2827 5.48623 12.2236 5.51899 12.1585 5.54134C12.0935 5.56369 12.0238 5.57519 11.9533 5.57519H11.4521C11.3817 5.57519 11.312 5.56369 11.247 5.54134C11.1819 5.51899 11.1228 5.48623 11.073 5.44494C11.0233 5.40364 10.9838 5.35462 10.9569 5.30067C10.9299 5.24672 10.9161 5.1889 10.9161 5.13052V4.71487ZM10.9161 7.37271C10.9161 7.25482 10.9726 7.14175 11.0731 7.05839C11.1736 6.97503 11.31 6.92819 11.4521 6.92819H11.9533C12.0237 6.92819 12.0934 6.93969 12.1585 6.96203C12.2235 6.98437 12.2826 7.01711 12.3324 7.05839C12.3822 7.09967 12.4216 7.14867 12.4486 7.2026C12.4755 7.25653 12.4894 7.31433 12.4894 7.37271V7.78836C12.4894 7.84674 12.4756 7.90456 12.4486 7.95851C12.4217 8.01246 12.3822 8.06149 12.3324 8.10278C12.2827 8.14407 12.2236 8.17683 12.1585 8.19918C12.0935 8.22153 12.0238 8.23303 11.9533 8.23303H11.4521C11.3817 8.23303 11.312 8.22153 11.247 8.19918C11.1819 8.17683 11.1228 8.14407 11.073 8.10278C11.0233 8.06149 10.9838 8.01246 10.9569 7.95851C10.9299 7.90456 10.9161 7.84674 10.9161 7.78836V7.37271ZM10.9161 10.0305C10.9161 9.91266 10.9726 9.79959 11.0731 9.71623C11.1736 9.63287 11.31 9.58603 11.4521 9.58603H11.9533C12.0237 9.58603 12.0934 9.59753 12.1585 9.61987C12.2235 9.64221 12.2826 9.67495 12.3324 9.71623C12.3822 9.75751 12.4216 9.80651 12.4486 9.86044C12.4755 9.91437 12.4894 9.97217 12.4894 10.0305V10.4462C12.4894 10.5046 12.4756 10.5624 12.4486 10.6164C12.4217 10.6703 12.3822 10.7193 12.3324 10.7606C12.2827 10.8019 12.2236 10.8347 12.1585 10.857C12.0935 10.8794 12.0238 10.8909 11.9533 10.8909H11.4521C11.3817 10.8909 11.312 10.8794 11.247 10.857C11.1819 10.8347 11.1228 10.8019 11.073 10.7606C11.0233 10.7193 10.9838 10.6703 10.9569 10.6164C10.9299 10.5624 10.9161 10.5046 10.9161 10.4462V10.0305ZM10.9161 12.6884C10.9161 12.5705 10.9726 12.4574 11.0731 12.3741C11.1736 12.2907 11.31 12.2439 11.4521 12.2439H11.9533C12.0237 12.2439 12.0934 12.2554 12.1585 12.2777C12.2235 12.3 12.2826 12.3328 12.3324 12.3741C12.3822 12.4153 12.4216 12.4643 12.4486 12.5183C12.4755 12.5722 12.4894 12.63 12.4894 12.6884V13.1042C12.4893 13.2221 12.4328 13.3351 12.3323 13.4184C12.2318 13.5017 12.0955 13.5486 11.9533 13.5486H11.4521C11.3817 13.5486 11.312 13.5371 11.247 13.5147C11.182 13.4924 11.1229 13.4596 11.0731 13.4184C11.0233 13.3771 10.9838 13.3281 10.9569 13.2741C10.93 13.2202 10.9161 13.1624 10.9161 13.104V12.6884ZM10.9161 15.3462C10.9161 15.2283 10.9726 15.1153 11.0731 15.0319C11.1736 14.9485 11.31 14.9017 11.4521 14.9017H11.9533C12.0237 14.9017 12.0934 14.9132 12.1585 14.9356C12.2235 14.9579 12.2826 14.9906 12.3324 15.0319C12.3822 15.0732 12.4216 15.1222 12.4486 15.1761C12.4755 15.2301 12.4894 15.2879 12.4894 15.3462V15.762C12.4894 15.8204 12.4755 15.8782 12.4486 15.9321C12.4216 15.9861 12.3822 16.0351 12.3324 16.0764C12.2826 16.1176 12.2235 16.1504 12.1585 16.1727C12.0934 16.1951 12.0237 16.2066 11.9533 16.2066H11.4521C11.31 16.2066 11.1736 16.1597 11.0731 16.0764C10.9726 15.993 10.9161 15.8799 10.9161 15.762V15.3462ZM10.9161 17.3216C10.9161 17.2793 10.9364 17.2387 10.9724 17.2088C11.0085 17.1789 11.0574 17.1621 11.1084 17.1621H14.3621V19.782H10.9161V17.3216ZM18.289 19.782H14.8429V17.1621H18.0966C18.1476 17.1621 18.1966 17.1789 18.2326 17.2088C18.2687 17.2387 18.289 17.2793 18.289 17.3216V19.782ZM18.289 15.7627C18.289 15.8211 18.2751 15.8789 18.2481 15.9328C18.2212 15.9868 18.1817 16.0358 18.1319 16.077C18.0821 16.1183 18.023 16.1511 17.9579 16.1734C17.8929 16.1957 17.8231 16.2072 17.7527 16.2072H17.2519C17.1097 16.2072 16.9734 16.1604 16.8729 16.077C16.7724 15.9936 16.7159 15.8806 16.7159 15.7627V15.3462C16.7159 15.2283 16.7724 15.1153 16.8729 15.0319C16.9734 14.9485 17.1097 14.9017 17.2519 14.9017H17.752C17.8224 14.9017 17.8921 14.9132 17.9572 14.9355C18.0222 14.9578 18.0813 14.9906 18.1311 15.0319C18.1809 15.0731 18.2204 15.1221 18.2474 15.1761C18.2743 15.23 18.2882 15.2878 18.2882 15.3462L18.289 15.7627ZM18.289 13.1048C18.2888 13.1632 18.2748 13.221 18.2478 13.2749C18.2207 13.3288 18.1811 13.3777 18.1313 13.4189C18.0814 13.4601 18.0223 13.4928 17.9572 13.515C17.8921 13.5373 17.8224 13.5487 17.752 13.5486H17.2519C17.1815 13.5486 17.1118 13.5371 17.0468 13.5147C16.9817 13.4924 16.9227 13.4596 16.8729 13.4184C16.8231 13.3771 16.7836 13.3281 16.7567 13.2741C16.7297 13.2202 16.7159 13.1624 16.7159 13.104V12.6884C16.7159 12.5705 16.7724 12.4574 16.8729 12.3741C16.9734 12.2907 17.1097 12.2439 17.2519 12.2439H17.752C17.8224 12.2439 17.8921 12.2553 17.9572 12.2777C18.0222 12.3 18.0813 12.3327 18.1311 12.374C18.1809 12.4153 18.2204 12.4643 18.2474 12.5182C18.2743 12.5722 18.2882 12.63 18.2882 12.6884L18.289 13.1048ZM18.289 10.4468C18.289 10.5648 18.2325 10.6779 18.1319 10.7613C18.0313 10.8447 17.895 10.8915 17.7527 10.8915H17.2519C17.1815 10.8915 17.1118 10.88 17.0467 10.8577C16.9817 10.8353 16.9226 10.8026 16.8728 10.7613C16.823 10.72 16.7836 10.6709 16.7566 10.617C16.7297 10.563 16.7159 10.5052 16.7159 10.4468V10.0305C16.7159 9.91266 16.7724 9.79959 16.8729 9.71623C16.9734 9.63287 17.1097 9.58603 17.2519 9.58603H17.752C17.8224 9.58601 17.8921 9.5975 17.9572 9.61983C18.0222 9.64216 18.0813 9.67489 18.1311 9.71617C18.1809 9.75745 18.2204 9.80646 18.2474 9.8604C18.2743 9.91435 18.2882 9.97216 18.2882 10.0305L18.289 10.4468ZM18.289 7.78899C18.289 7.90693 18.2325 8.02003 18.1319 8.10343C18.0313 8.18682 17.895 8.23367 17.7527 8.23367H17.2519C17.1815 8.23367 17.1118 8.22217 17.0467 8.19982C16.9817 8.17747 16.9226 8.14471 16.8728 8.10342C16.823 8.06212 16.7836 8.0131 16.7566 7.95915C16.7297 7.9052 16.7159 7.84738 16.7159 7.78899V7.37271C16.7159 7.25482 16.7724 7.14175 16.8729 7.05839C16.9734 6.97503 17.1097 6.92819 17.2519 6.92819H17.752C17.8224 6.92817 17.8921 6.93966 17.9572 6.96199C18.0222 6.98432 18.0813 7.01705 18.1311 7.05833C18.1809 7.09961 18.2204 7.14862 18.2474 7.20256C18.2743 7.25651 18.2882 7.31432 18.2882 7.37271L18.289 7.78899ZM18.289 5.13115C18.289 5.24909 18.2325 5.36219 18.1319 5.44559C18.0313 5.52898 17.895 5.57583 17.7527 5.57583H17.2519C17.1815 5.57583 17.1118 5.56433 17.0467 5.54198C16.9817 5.51963 16.9226 5.48687 16.8728 5.44558C16.823 5.40428 16.7836 5.35526 16.7566 5.30131C16.7297 5.24736 16.7159 5.18954 16.7159 5.13115V4.71487C16.7159 4.59698 16.7724 4.48391 16.8729 4.40055C16.9734 4.31719 17.1097 4.27035 17.2519 4.27035H17.752C17.8224 4.27033 17.8921 4.28182 17.9572 4.30415C18.0222 4.32648 18.0813 4.35921 18.1311 4.40049C18.1809 4.44177 18.2204 4.49078 18.2474 4.54472C18.2743 4.59867 18.2882 4.65648 18.2882 4.71487L18.289 5.13115Z" fill="#A5C7FF"/>
</svg>
