<svg width="12" height="20" viewBox="0 0 12 20" fill="none" xmlns="http://www.w3.org/2000/svg">
<path fill-rule="evenodd" clip-rule="evenodd" d="M5.99282 0C10.3582 0 13.2582 4.68553 11.4571 8.71069L6.94691 18.1341C6.58583 18.8886 5.51326 18.8927 5.14629 18.1412L0.864303 9.37107C-1.51679 5.31447 1.29168 0 5.99282 0ZM5.99282 3.42767C7.58022 3.42767 8.86235 4.74843 8.86235 6.38365C8.86235 8.01887 7.58022 9.33962 5.99282 9.33962C4.40542 9.33962 3.12329 8.01887 3.12329 6.38365C3.12329 4.74843 4.40542 3.42767 5.99282 3.42767ZM5.99282 2.57862C8.0076 2.57862 9.65605 4.27673 9.65605 6.3522C9.65605 8.42767 8.0076 10.0943 5.99282 10.0943C3.97805 10.0943 2.36012 8.42767 2.36012 6.3522C2.36012 4.27673 3.97805 2.57862 5.99282 2.57862Z" fill="#A5C6FF"/>
</svg>
