<svg width="20" height="20" viewBox="0 0 20 20" fill="none" xmlns="http://www.w3.org/2000/svg">
<path d="M10 0C4.45455 0 0 4.5 0 10C0 15.5 4.5 20 10 20C15.5 20 20 15.5 20 10C20 4.5 15.5455 0 10 0ZM10.7727 14.7273V15.9091C10.7727 16.3182 10.4091 16.6818 10 16.6818C9.59091 16.6818 9.22727 16.3636 9.22727 15.9091V14.7273C8.09091 14.6818 7.09091 14 6.72727 12.9545C6.59091 12.5455 6.77273 12.0909 7.18182 11.9545C7.59091 11.8182 8.04545 12 8.18182 12.4091C8.36364 12.9091 8.81818 13.1818 9.31818 13.1818H10.7273C11.4091 13.1818 11.9545 12.6364 11.9545 11.9545C11.9545 11.6364 11.8182 11.3182 11.5909 11.0909C11.3636 10.8636 11.0455 10.7273 10.7273 10.7273H9.31818C7.77273 10.7273 6.54546 9.5 6.54546 7.95455C6.54546 7.22727 6.81818 6.5 7.36364 6C7.86364 5.5 8.54545 5.22727 9.22727 5.22727V4.09091C9.22727 3.68182 9.59091 3.31818 10 3.31818C10.4091 3.31818 10.7727 3.68182 10.7727 4.09091V5.27273C11.9091 5.31818 12.9091 6 13.2727 7.04545C13.4091 7.45455 13.2273 7.90909 12.8182 8.04545C12.4091 8.18182 11.9545 8 11.8182 7.59091C11.6364 7.13636 11.1818 6.81818 10.6818 6.81818H9.27273C8.95455 6.81818 8.63636 6.95455 8.40909 7.18182C8.18182 7.40909 8.04545 7.72727 8.04545 8.04545C8.04545 8.72727 8.59091 9.27273 9.27273 9.27273H10.6818C11.4091 9.27273 12.1364 9.54545 12.6364 10.0909C13.1364 10.5909 13.4545 11.3182 13.4545 12.0455C13.4545 13.5 12.2727 14.7273 10.7727 14.7273Z" fill="#A5C6FF"/>
</svg>
