<svg width="20" height="20" viewBox="0 0 20 20" fill="none" xmlns="http://www.w3.org/2000/svg">
<path d="M14.0904 16.6526C14.2436 16.8 14.4186 16.8632 14.6155 16.8632C14.8125 16.8632 14.9875 16.8 15.1407 16.6526L17.1536 14.7158C17.4381 14.4421 17.4381 13.9789 17.1536 13.7053C16.8692 13.4316 16.3878 13.4316 16.1034 13.7053L14.6155 15.1368L14.0685 14.6105C13.7841 14.3368 13.3027 14.3368 13.0183 14.6105C12.7338 14.8842 12.7338 15.3474 13.0183 15.6211L14.0904 16.6526Z" fill="#A5C6FF"/>
<path d="M17.8324 1.95789H16.8916V1.74737C16.8916 0.778947 16.082 0 15.0755 0C14.069 0 13.2595 0.778947 13.2595 1.74737V1.95789H11.8372V1.74737C11.8372 0.778947 11.0277 0 10.0212 0C9.01468 0 8.20511 0.778947 8.20511 1.74737V1.95789H6.78289V1.74737C6.78289 0.778947 5.97332 0 4.96683 0C3.96033 0 3.15076 0.778947 3.15076 1.74737V1.95789H2.20991C0.984614 1.95789 0 2.90526 0 4.08421V17.8737C0 19.0526 0.984614 20 2.20991 20H17.7887C19.014 20 19.9986 19.0526 19.9986 17.8737V4.10526C20.0424 2.92632 19.0577 1.95789 17.8324 1.95789ZM14.4191 1.76842C14.4191 1.41053 14.7254 1.13684 15.0755 1.13684C15.4475 1.13684 15.7319 1.43158 15.7319 1.76842V3.28421C15.7319 3.64211 15.4256 3.91579 15.0755 3.91579C14.7036 3.91579 14.4191 3.62105 14.4191 3.28421V1.76842ZM9.38665 1.76842C9.38665 1.41053 9.69297 1.13684 10.0431 1.13684C10.415 1.13684 10.6995 1.43158 10.6995 1.76842V3.28421C10.6995 3.64211 10.3931 3.91579 10.0431 3.91579C9.67109 3.91579 9.38665 3.62105 9.38665 3.28421V1.76842ZM4.3323 1.76842C4.3323 1.41053 4.63862 1.13684 4.98871 1.13684C5.36067 1.13684 5.64512 1.43158 5.64512 1.76842V3.28421C5.64512 3.64211 5.33879 3.91579 4.98871 3.91579C4.61674 3.91579 4.3323 3.62105 4.3323 3.28421V1.76842ZM18.9046 17.8947C18.9046 18.4632 18.4232 18.9263 17.8324 18.9263H2.25367C1.6629 18.9263 1.18154 18.4632 1.18154 17.8947V6.73684H18.8827V17.8947H18.9046Z" fill="#A5C6FF"/>
<path d="M3.98197 12.1475H6.23564C6.54197 12.1475 6.80453 11.8949 6.80453 11.6001V9.41065C6.80453 9.11591 6.54197 8.86328 6.23564 8.86328H3.98197C3.67565 8.86328 3.41309 9.11591 3.41309 9.41065V11.6001C3.41309 11.8949 3.67565 12.1475 3.98197 12.1475Z" fill="#A5C6FF"/>
<path d="M8.92685 12.1475H11.1805C11.4868 12.1475 11.7494 11.8949 11.7494 11.6001V9.41065C11.7494 9.11591 11.4868 8.86328 11.1805 8.86328H8.92685C8.62053 8.86328 8.35796 9.11591 8.35796 9.41065V11.6001C8.33608 11.8949 8.59865 12.1475 8.92685 12.1475Z" fill="#A5C6FF"/>
<path d="M13.8501 12.1475H16.1038C16.4101 12.1475 16.6727 11.8949 16.6727 11.6001V9.41065C16.6727 9.11591 16.4101 8.86328 16.1038 8.86328H13.8501C13.5438 8.86328 13.2812 9.11591 13.2812 9.41065V11.6001C13.2812 11.8949 13.5438 12.1475 13.8501 12.1475Z" fill="#A5C6FF"/>
<path d="M3.98197 16.8213H6.23564C6.54197 16.8213 6.80453 16.5687 6.80453 16.274V14.0845C6.80453 13.7897 6.54197 13.5371 6.23564 13.5371H3.98197C3.67565 13.5371 3.41309 13.7897 3.41309 14.0845V16.274C3.41309 16.5687 3.67565 16.8213 3.98197 16.8213Z" fill="#A5C6FF"/>
<path d="M8.92685 16.8213H11.1805C11.4868 16.8213 11.7494 16.5687 11.7494 16.274V14.0845C11.7494 13.7897 11.4868 13.5371 11.1805 13.5371H8.92685C8.62053 13.5371 8.35796 13.7897 8.35796 14.0845V16.274C8.33608 16.5687 8.59865 16.8213 8.92685 16.8213Z" fill="white"/>
</svg>
