<svg width="18" height="20" viewBox="0 0 18 20" fill="none" xmlns="http://www.w3.org/2000/svg">
<path d="M4.94238 4.05486C6.07149 4.05486 6.98682 3.14715 6.98682 2.02743C6.98682 0.907712 6.07149 0 4.94238 0C3.81327 0 2.89795 0.907712 2.89795 2.02743C2.89795 3.14715 3.81327 4.05486 4.94238 4.05486Z" fill="#A5C6FF"/>
<path d="M7.17863 12.9875C6.98696 11.6359 6.88048 10.2632 6.88048 8.91157V6.27168H9.13788L9.5638 5.4058C9.73417 5.04678 9.98973 4.72999 10.2666 4.47656H4.06939C3.21754 4.47656 2.42958 4.9623 2.06754 5.72259L0.0869998 9.86193C-0.125962 10.3054 0.0657037 10.8545 0.512924 11.0657C0.640701 11.1291 0.768478 11.1502 0.896255 11.1502C1.23699 11.1502 1.55644 10.9601 1.70551 10.6433L2.98328 7.98233V8.91157C2.98328 10.2632 2.8768 11.6359 2.68513 12.9875L1.85458 18.7953C1.7694 19.3655 2.17403 19.8935 2.74902 19.978C2.79162 19.978 2.8555 19.978 2.8981 19.978C3.4092 19.978 3.87772 19.5978 3.94161 19.0698L4.77216 13.2621C4.81475 12.9031 4.85735 12.5652 4.89994 12.2061C4.94253 12.5652 4.98512 12.9031 5.02772 13.2621L5.85827 19.0698C5.94345 19.5978 6.39067 19.978 6.90178 19.978C6.94437 19.978 7.00826 19.978 7.05085 19.978C7.62585 19.8935 8.03048 19.3655 7.94529 18.7953L7.17863 12.9875Z" fill="#A5C6FF"/>
<path d="M17.9135 9.86193L15.9329 5.72259C15.5709 4.9623 14.7829 4.47656 13.9311 4.47656H12.2061C11.3543 4.47656 10.5663 4.9623 10.2043 5.72259L8.22372 9.86193C8.01076 10.3054 8.20242 10.8545 8.64964 11.0657C8.77742 11.1291 8.9052 11.1502 9.03297 11.1502C9.37371 11.1502 9.69316 10.9601 9.86352 10.6433L11.1413 7.98233V8.91157C11.1413 10.2632 11.0348 11.6359 10.8431 12.9875L10.0126 18.7953C9.92741 19.3655 10.332 19.8935 10.907 19.978C10.9496 19.978 11.0135 19.9991 11.0561 19.9991C11.5672 19.9991 12.0357 19.6189 12.0996 19.091L12.9302 13.2832C12.9728 12.9242 13.0154 12.5863 13.058 12.2273C13.1005 12.5863 13.1431 12.9242 13.1857 13.2832L14.0163 19.091C14.1015 19.6189 14.5487 19.9991 15.0598 19.9991C15.1024 19.9991 15.1663 19.9991 15.2089 19.978C15.7839 19.8935 16.1885 19.3655 16.1033 18.7953L15.2728 12.9875C15.0811 11.6359 14.9746 10.2632 14.9746 8.91157V7.96121L16.2524 10.6222C16.4653 11.0657 17.019 11.2558 17.4663 11.0446C17.9348 10.8334 18.1264 10.3054 17.9135 9.86193Z" fill="#A5C6FF"/>
<path d="M13.0581 4.05486C14.1872 4.05486 15.1025 3.14715 15.1025 2.02743C15.1025 0.907712 14.1872 0 13.0581 0C11.929 0 11.0137 0.907712 11.0137 2.02743C11.0137 3.14715 11.929 4.05486 13.0581 4.05486Z" fill="#A5C6FF"/>
</svg>
