<svg width="18" height="21" viewBox="0 0 18 21" fill="none" xmlns="http://www.w3.org/2000/svg">
<path fill-rule="evenodd" clip-rule="evenodd" d="M6.72608 10.1861L13.3938 19.0802C14.2469 19.5459 14.9058 19.0196 14.6277 18.0798L7.53388 9.53253C9.68203 7.06668 4.17668 1.38739 1.91065 3.24405C-0.173715 4.9665 4.05172 11.7644 6.72608 10.1861Z" fill="#A5C7FF"/>
<path fill-rule="evenodd" clip-rule="evenodd" d="M10.8106 5.27884C9.15157 7.54803 10.152 8.2372 10.7296 8.71899L3.96984 17.5771C3.65142 18.6971 4.30421 19.1395 5.24301 18.5256L11.5787 9.3221C12.1037 9.7018 13.1397 10.4677 14.78 8.23599L17.7519 3.61027L17.3635 3.32091L14.5875 7.14951L13.5492 6.3798L16.2756 2.51044L15.7417 2.11267L12.9165 5.90848L11.8913 5.14089L14.6673 1.31229L14.2551 1.00519L10.8106 5.27888L10.8106 5.27884Z" fill="#A5C7FF"/>
</svg>
