<svg width="20" height="20" viewBox="0 0 20 20" fill="none" xmlns="http://www.w3.org/2000/svg">
<path d="M10 0C4.48421 0 0 4.48421 0 10C0 15.5158 4.48421 20 10 20C15.5158 20 20 15.5158 20 10C20 4.48421 15.5158 0 10 0ZM14.5684 8.86316L10.0421 13.3895C9.72632 13.7053 9.32632 13.8526 8.92632 13.8526C8.52632 13.8526 8.10526 13.7053 7.81053 13.3895L5.43158 11.0316C4.82105 10.4211 4.82105 9.41053 5.43158 8.77895C6.04211 8.16842 7.05263 8.16842 7.68421 8.77895L8.92632 10.0211L12.3158 6.61053C12.9263 6 13.9368 6 14.5684 6.61053C15.1789 7.24211 15.1789 8.25263 14.5684 8.86316Z" fill="#A5C6FF"/>
</svg>
